<?xml version="1.0" standalone="no"?>
<!DOCTYPE svg PUBLIC "-//W3C//DTD SVG 20010904//EN"
 "http://www.w3.org/TR/2001/REC-SVG-20010904/DTD/svg10.dtd">
<svg version="1.0" xmlns="http://www.w3.org/2000/svg"
 width="3000.000000pt" height="3000.000000pt" viewBox="0 0 3000.000000 3000.000000"
 preserveAspectRatio="xMidYMid meet">

<g transform="translate(0.000000,3000.000000) scale(0.100000,-0.100000)"
fill="#000000" stroke="none">
<path d="M12687 18953 c-4 -3 -7 -46 -7 -94 0 -79 -3 -93 -29 -136 -16 -26
-39 -68 -52 -93 -53 -99 -149 -118 -274 -54 -38 20 -87 45 -107 55 -149 76
-354 59 -586 -47 -151 -69 -298 -256 -348 -439 -8 -27 -14 -94 -14 -148 0 -86
4 -108 30 -173 16 -41 43 -134 61 -206 17 -73 37 -150 45 -173 8 -23 14 -79
14 -132 0 -198 -50 -237 -460 -362 -36 -11 -80 -23 -97 -26 -18 -4 -40 -16
-48 -28 -19 -27 -20 -130 -2 -145 6 -5 100 -12 207 -16 227 -8 343 -16 358
-25 8 -5 13 -331 17 -1086 5 -1048 15 -1522 34 -1615 6 -25 12 -124 16 -220 8
-254 31 -554 66 -870 10 -96 24 -218 29 -270 14 -124 28 -239 40 -320 15 -106
28 -209 40 -310 23 -203 32 -267 46 -316 31 -115 68 -61 113 166 12 58 26 130
32 160 6 30 15 75 19 100 12 61 30 156 41 210 4 25 20 101 34 170 14 69 25
140 25 159 0 52 19 147 46 226 18 53 29 125 44 295 11 124 25 257 30 295 5 39
14 120 20 180 6 61 15 137 20 170 20 116 48 412 59 610 6 110 15 265 21 345 5
80 11 339 14 575 3 237 9 545 15 685 6 140 13 348 17 463 l6 207 52 15 c28 8
97 15 156 15 168 2 288 11 298 23 5 7 6 42 3 79 -7 77 -38 123 -75 112 -12 -4
-59 -7 -106 -6 -72 1 -102 7 -198 41 -62 22 -127 51 -143 65 -17 14 -70 46
-119 72 -98 50 -142 92 -251 237 -57 76 -142 235 -175 330 -8 22 -14 68 -14
102 0 58 2 65 31 89 72 61 109 45 258 -110 150 -158 315 -264 410 -264 48 0
184 44 223 72 119 84 270 375 324 625 42 193 -2 579 -78 685 -31 45 -108 74
-131 51z"/>
<path d="M2945 18699 c-151 -24 -196 -33 -279 -56 -166 -47 -311 -104 -396
-156 -47 -29 -114 -68 -150 -86 -310 -161 -656 -542 -709 -781 -21 -95 -31
-169 -31 -230 0 -59 4 -90 31 -260 5 -36 20 -83 32 -105 19 -34 28 -40 59 -43
43 -4 61 19 52 66 -5 22 3 50 31 108 148 314 167 341 308 446 175 129 294 177
576 233 135 27 245 31 350 14 110 -18 143 -29 211 -73 36 -23 74 -47 85 -53
29 -15 25 -29 -15 -58 -68 -50 -243 -251 -318 -365 -100 -153 -135 -229 -176
-390 -42 -167 -50 -248 -36 -370 6 -52 15 -129 20 -170 11 -89 29 -153 71
-246 17 -38 40 -95 50 -127 10 -32 25 -72 33 -90 43 -93 164 -367 208 -467 50
-118 96 -288 105 -395 4 -46 0 -73 -17 -117 -25 -67 -101 -156 -164 -193 -36
-21 -47 -23 -76 -15 -50 14 -255 40 -321 40 -31 0 -82 -9 -115 -20 -32 -11
-70 -20 -83 -20 -30 0 -257 -100 -336 -148 -84 -51 -280 -249 -344 -347 -28
-44 -78 -131 -109 -194 -54 -107 -57 -119 -61 -197 -2 -63 0 -84 10 -84 7 0
44 23 83 52 182 133 268 186 366 224 65 24 91 29 199 32 107 3 137 0 209 -20
77 -21 86 -26 98 -55 33 -78 212 -269 334 -355 91 -64 337 -212 442 -265 192
-96 435 -148 586 -125 42 6 122 18 177 27 156 23 259 49 340 85 33 14 80 33
104 40 74 24 179 90 352 222 325 248 677 677 778 948 18 47 36 94 41 105 59
133 118 424 150 745 17 169 1 608 -30 820 -16 115 -50 249 -77 310 -29 65 -48
122 -58 170 -13 63 -42 144 -78 215 -43 88 -55 115 -105 242 -26 66 -71 150
-130 240 -49 76 -121 194 -159 263 -80 144 -111 190 -244 356 -107 133 -171
188 -329 286 -148 91 -199 118 -330 177 -63 29 -128 59 -145 68 -30 17 -90 36
-255 79 -52 14 -111 30 -130 35 -103 29 -560 47 -685 28z m852 -1088 c21 -11
76 -47 123 -80 87 -61 203 -127 345 -197 70 -34 97 -56 213 -174 171 -174 208
-229 339 -505 11 -22 52 -102 91 -177 40 -75 82 -161 93 -190 23 -56 26 -67
59 -222 23 -103 39 -146 88 -231 16 -29 34 -81 41 -120 7 -39 17 -93 23 -121
18 -86 -12 -497 -46 -635 -42 -169 -166 -370 -322 -520 -92 -88 -241 -174
-334 -193 -77 -16 -290 -36 -381 -36 -89 0 -230 22 -254 40 -5 4 -26 11 -45
15 -54 12 -163 68 -233 120 -34 26 -133 117 -220 201 -180 177 -174 156 -78
260 76 83 148 215 194 354 117 357 125 395 134 705 5 186 0 245 -39 395 -34
132 -114 335 -218 555 -91 191 -140 333 -140 402 0 50 33 129 97 232 27 43 46
86 46 103 0 30 6 35 24 17 9 -9 18 -6 37 9 24 18 38 19 176 16 125 -3 156 -7
187 -23z"/>
<path d="M14073 18638 c-11 -13 -33 -30 -49 -39 -16 -8 -54 -44 -85 -80 l-56
-64 -7 -232 c-9 -280 -26 -409 -80 -603 -9 -30 -16 -68 -16 -84 0 -15 -16 -58
-35 -95 -19 -36 -48 -95 -64 -131 -66 -143 -232 -306 -336 -330 -28 -7 -98
-26 -157 -43 l-108 -32 0 -53 c0 -62 20 -108 52 -118 13 -4 53 -6 91 -4 98 3
177 4 217 2 19 -1 60 -2 90 -2 30 0 58 -4 63 -9 5 -5 4 -103 -2 -227 -7 -153
-7 -341 0 -624 20 -775 22 -1019 9 -1220 -15 -245 -30 -328 -71 -391 -35 -55
-138 -137 -182 -146 -35 -7 -45 -28 -23 -52 9 -10 16 -29 16 -44 0 -22 15 -36
93 -88 99 -67 123 -87 262 -217 50 -47 136 -120 193 -163 91 -70 108 -79 145
-79 31 0 53 7 78 26 44 33 121 72 233 118 101 42 171 85 236 145 25 23 77 60
117 82 40 22 82 54 95 72 12 18 44 52 70 78 92 87 55 109 -179 109 -181 1
-250 14 -315 58 -57 40 -71 56 -106 127 -59 119 -60 131 -68 735 -3 305 -6
571 -5 590 1 19 3 277 5 573 3 466 5 541 18 554 13 12 20 13 38 3 17 -9 40 -9
99 -1 42 6 132 13 201 15 69 2 133 7 142 10 21 9 31 35 19 50 -13 16 -20 163
-8 175 7 7 6 15 -1 24 -10 12 -51 14 -220 11 -114 -2 -223 -6 -243 -9 -29 -5
-38 -3 -44 12 -11 25 -24 487 -30 1072 -5 391 -9 501 -20 527 -17 40 -42 44
-72 12z"/>
<path d="M9674 18573 c-235 -159 -375 -302 -391 -398 -4 -27 -1 -35 16 -44 12
-7 63 -76 115 -154 72 -109 116 -164 190 -235 72 -70 102 -93 119 -90 12 2 23
12 25 22 3 11 16 32 31 46 14 15 46 63 70 106 50 89 185 276 228 315 15 15 42
33 58 40 52 24 44 47 -45 122 -46 39 -86 83 -94 101 -16 38 -211 215 -237 216
-9 0 -48 -21 -85 -47z"/>
<path d="M9541 17010 c-44 -38 -95 -77 -113 -86 -18 -9 -69 -51 -114 -93 -44
-42 -145 -130 -224 -196 -267 -222 -332 -302 -285 -348 15 -16 82 -21 100 -8
16 12 141 33 196 34 44 1 53 -3 90 -39 90 -88 126 -166 165 -359 14 -71 18
-149 21 -365 1 -151 5 -286 9 -300 4 -14 8 -187 9 -385 1 -198 5 -376 8 -395
3 -19 8 -60 11 -92 l6 -56 -88 -70 c-48 -38 -107 -82 -131 -97 -25 -15 -66
-48 -93 -72 -40 -39 -47 -50 -41 -72 8 -35 23 -53 40 -47 17 7 64 -18 165 -87
42 -28 96 -64 120 -79 24 -15 95 -73 158 -130 64 -57 129 -112 145 -122 17
-11 51 -37 76 -58 32 -27 55 -38 77 -38 22 0 32 -5 32 -15 0 -22 25 -18 71 10
22 14 140 76 262 138 261 133 319 168 481 289 186 140 198 155 157 192 -32 29
-85 31 -133 6 -51 -27 -122 -41 -240 -47 -108 -6 -172 12 -243 67 -42 32 -59
55 -84 111 l-31 70 6 272 c4 150 6 515 6 811 -1 475 1 542 15 570 41 81 171
267 225 324 57 59 60 64 53 100 -9 50 -26 66 -86 81 -61 16 -157 69 -164 92
-3 9 -54 66 -114 126 -60 61 -138 154 -175 209 -38 54 -91 127 -119 161 -50
59 -54 62 -99 62 -43 1 -51 -3 -127 -69z"/>
<path d="M24439 17012 c-29 -26 -119 -98 -199 -160 -80 -61 -185 -148 -235
-192 -49 -44 -173 -148 -274 -232 -102 -84 -217 -182 -256 -218 -40 -36 -90
-79 -112 -97 -22 -17 -48 -49 -57 -70 -9 -21 -25 -55 -36 -75 -94 -176 -165
-654 -164 -1108 0 -230 10 -333 51 -530 43 -208 85 -321 186 -495 49 -85 248
-284 317 -317 25 -12 62 -32 82 -45 21 -13 63 -37 93 -53 64 -35 49 -39 191
53 151 98 215 135 329 192 61 29 148 77 194 104 l84 51 33 -25 c18 -14 63 -59
101 -101 37 -42 86 -93 108 -113 22 -20 66 -60 97 -90 32 -30 75 -65 95 -77
33 -20 39 -20 69 -8 18 8 93 58 168 111 194 142 211 153 311 208 84 47 281
186 297 209 4 6 4 14 0 18 -13 13 -165 84 -196 92 -16 4 -57 21 -91 38 -79 38
-99 75 -102 192 -2 65 -20 1227 -26 1621 -1 79 3 98 28 153 30 67 112 152 188
195 51 29 64 87 20 87 -8 0 -27 9 -42 19 -15 11 -40 23 -57 27 -16 4 -45 18
-65 31 -19 13 -87 41 -150 64 -211 74 -342 142 -469 242 -63 50 -135 102 -160
116 -25 13 -65 43 -90 66 -25 22 -54 47 -65 55 -12 8 -31 30 -44 48 -12 17
-29 32 -37 32 -8 0 -17 7 -20 15 -10 26 -38 16 -95 -33z m-111 -808 c59 -47
159 -132 222 -188 l115 -103 5 -199 c3 -109 5 -482 5 -828 l0 -629 -60 -54
c-76 -69 -160 -129 -251 -178 l-71 -39 -210 197 -210 197 -7 138 c-4 75 -11
178 -16 227 -5 50 -14 320 -19 602 -5 282 -12 517 -16 523 -3 5 -3 30 1 55 6
43 13 51 142 163 157 136 241 202 254 202 5 0 57 -39 116 -86z"/>
<path d="M6925 16967 c-38 -34 -95 -86 -125 -115 -30 -29 -125 -112 -210 -185
-85 -72 -188 -164 -228 -205 -70 -70 -73 -74 -67 -110 11 -63 12 -65 53 -59
68 10 137 27 175 43 31 14 43 15 75 5 46 -14 65 -30 126 -106 61 -74 71 -100
102 -244 38 -179 46 -311 55 -926 5 -313 11 -606 14 -650 l6 -81 -83 -65 c-46
-36 -105 -78 -132 -94 -72 -41 -138 -104 -134 -128 3 -20 195 -159 265 -192
46 -22 114 -75 229 -181 56 -50 112 -98 125 -105 13 -6 47 -32 75 -56 28 -23
57 -43 64 -43 6 0 25 -8 41 -17 29 -17 31 -17 72 6 23 13 137 72 252 131 116
59 226 116 245 127 147 83 440 303 440 329 0 7 -8 19 -18 26 -10 7 -21 21 -25
31 -9 24 -37 21 -109 -9 -114 -48 -296 -67 -386 -41 -81 24 -116 57 -151 142
-62 148 -61 137 -54 699 4 346 2 590 -6 756 l-12 245 45 83 c26 46 71 115 102
155 31 40 79 103 107 140 28 37 61 70 74 73 19 5 41 -12 132 -102 106 -106
189 -181 217 -197 10 -5 17 1 26 22 7 17 74 94 148 172 74 77 138 147 142 154
9 15 -29 92 -75 152 -94 122 -122 159 -211 286 -53 75 -99 137 -102 137 -21 0
-75 -34 -104 -66 -20 -22 -56 -57 -81 -79 -24 -22 -70 -71 -101 -110 -31 -38
-78 -89 -105 -111 -87 -75 -227 -220 -283 -292 -29 -40 -57 -69 -61 -65 -3 5
-26 51 -49 103 -24 52 -59 121 -78 154 -19 32 -39 75 -44 95 -5 20 -40 90 -76
156 -37 66 -80 146 -97 179 -16 33 -37 63 -45 66 -8 4 -25 12 -37 18 -35 19
-44 15 -118 -51z"/>
<path d="M17375 16999 c-22 -11 -58 -41 -80 -67 -116 -137 -227 -235 -398
-347 -89 -59 -90 -96 -4 -139 81 -39 194 -169 251 -289 55 -114 75 -194 87
-350 5 -67 12 -133 15 -147 11 -46 5 -1066 -7 -1122 -6 -29 -25 -75 -42 -103
-43 -70 -143 -172 -201 -203 -27 -15 -58 -33 -70 -39 -34 -20 -65 -15 -151 24
-85 40 -115 58 -210 128 -33 25 -77 57 -98 71 l-38 27 7 516 c18 1414 16 1505
-47 1619 -17 30 -41 68 -53 83 -13 15 -49 72 -80 126 -49 84 -68 108 -126 151
-93 72 -117 71 -185 -5 -124 -142 -315 -314 -404 -367 -120 -70 -398 -293
-422 -338 -8 -16 -5 -18 23 -18 68 0 184 -16 208 -29 14 -8 40 -27 58 -42 18
-16 37 -29 42 -29 13 0 93 -107 120 -160 71 -140 78 -218 85 -960 7 -753 9
-705 -30 -766 -18 -29 -38 -55 -44 -59 -10 -5 -83 -98 -148 -187 -31 -42 -31
-97 0 -126 20 -19 39 -23 133 -28 116 -7 215 -35 279 -78 18 -13 62 -29 97
-36 123 -26 266 -98 428 -214 52 -38 109 -75 127 -84 39 -19 42 -17 209 98 59
41 154 107 210 145 147 101 224 165 231 193 5 22 8 23 72 19 195 -14 296 -38
416 -97 22 -11 74 -35 115 -53 58 -27 100 -57 186 -136 61 -55 125 -119 143
-141 29 -36 36 -40 79 -40 43 0 101 17 197 60 53 23 122 83 388 337 232 221
290 271 396 343 141 95 252 235 287 365 42 152 62 212 76 236 13 20 15 75 12
324 -1 165 -3 314 -4 330 -1 17 1 186 6 376 7 333 6 346 -12 360 -20 15 -44
72 -44 106 0 11 -8 31 -19 44 -10 13 -31 49 -46 79 -15 30 -36 67 -46 82 -11
14 -19 34 -19 43 0 29 -42 79 -238 281 l-192 199 -68 -18 c-42 -11 -92 -35
-134 -63 -64 -42 -309 -154 -339 -154 -8 0 -29 -9 -46 -20 -32 -19 -44 -52
-23 -65 6 -4 16 -21 24 -38 7 -18 43 -65 79 -104 37 -40 92 -112 123 -160 31
-49 80 -117 109 -153 29 -36 70 -94 91 -130 20 -36 55 -87 76 -115 l39 -49 -4
-191 c-16 -728 -27 -1120 -32 -1180 -9 -97 -30 -172 -62 -218 -63 -90 -203
-187 -273 -187 -43 0 -149 26 -171 43 -90 66 -168 128 -184 147 -17 18 -21 41
-26 144 -3 66 -12 138 -19 160 -24 73 -15 1582 10 1709 11 53 11 75 2 101 -7
18 -12 44 -12 57 0 36 -50 109 -148 219 -101 112 -200 183 -401 287 -73 38
-82 39 -136 12z"/>
<path d="M21485 16931 c-149 -67 -282 -146 -383 -228 -29 -24 -80 -57 -114
-74 -98 -49 -258 -151 -331 -209 -77 -62 -112 -109 -128 -177 -7 -26 -52 -125
-100 -220 -68 -133 -85 -172 -74 -177 20 -7 19 -22 -5 -54 -19 -25 -21 -53
-31 -382 -14 -459 -9 -566 41 -876 14 -87 109 -269 206 -396 355 -460 376
-480 551 -543 39 -14 95 -43 125 -64 57 -40 111 -64 169 -75 33 -6 42 -2 90
37 30 24 92 72 139 107 47 36 120 96 163 135 130 116 232 197 422 335 61 44
152 112 203 151 88 68 92 73 92 109 0 30 -6 43 -27 60 -24 19 -36 21 -86 16
-75 -8 -138 -46 -317 -191 -118 -97 -138 -110 -211 -140 -99 -42 -165 -34
-302 34 -120 60 -176 112 -243 224 -20 34 -48 79 -62 100 -22 32 -103 229
-132 320 -6 18 -5 49 0 80 8 41 20 61 68 111 41 44 63 60 79 58 12 -1 43 11
69 28 26 16 51 30 54 30 11 0 280 154 335 191 28 19 92 56 143 84 51 27 134
80 185 118 102 75 196 131 272 162 43 17 52 26 63 60 7 22 19 47 27 56 26 27
17 56 -43 136 -179 239 -229 318 -322 509 -38 78 -84 166 -103 195 -19 30 -60
104 -92 164 -70 130 -142 245 -158 250 -62 19 -83 14 -232 -54z m-219 -569 c7
-4 34 -45 62 -92 68 -113 158 -251 265 -407 49 -70 97 -145 108 -165 l19 -37
-33 -24 c-17 -14 -77 -51 -132 -82 -55 -32 -135 -83 -178 -112 -43 -29 -82
-53 -87 -53 -4 0 -36 -16 -70 -35 -34 -19 -66 -35 -70 -35 -31 0 -86 393 -75
540 15 188 62 360 127 463 30 46 42 54 64 39z"/>
<path d="M26891 16859 c-68 -44 -181 -120 -250 -168 -69 -48 -185 -127 -257
-175 -158 -103 -161 -107 -145 -144 37 -79 35 -77 77 -75 159 8 294 6 330 -5
23 -7 56 -27 74 -45 33 -32 130 -218 130 -248 0 -9 9 -42 21 -75 20 -58 20
-72 15 -644 -6 -757 -12 -938 -31 -967 -8 -12 -50 -49 -92 -81 -88 -67 -213
-193 -213 -214 0 -20 21 -38 45 -38 11 -1 51 -27 88 -59 41 -36 116 -83 190
-122 130 -67 258 -149 347 -223 30 -25 60 -46 67 -46 19 0 128 -100 133 -123
3 -12 14 -23 23 -25 22 -4 115 50 227 133 47 34 133 88 192 119 59 30 143 75
185 99 43 24 150 81 238 126 88 45 168 91 178 103 18 22 18 23 -9 46 -33 28
-47 27 -214 -24 -63 -19 -133 -41 -155 -47 -22 -7 -83 -11 -135 -10 -169 5
-240 61 -316 251 l-39 95 0 819 0 818 68 63 c37 35 67 68 67 74 0 13 141 134
225 192 l60 42 45 -48 c25 -27 59 -70 77 -95 18 -26 60 -68 94 -93 53 -39 64
-44 79 -33 9 7 50 37 90 67 74 56 182 173 215 235 17 32 18 39 6 73 -27 74
-122 195 -322 406 l-65 69 -40 -12 c-23 -7 -84 -48 -149 -102 -357 -293 -437
-359 -499 -417 -63 -59 -70 -63 -80 -46 -6 10 -23 32 -37 49 -15 17 -44 61
-67 97 -22 36 -66 102 -98 147 -121 166 -189 282 -189 321 0 33 -3 36 -30 38
-22 1 -62 -19 -154 -78z"/>
</g>
</svg>
