<?xml version="1.0" encoding="UTF-8"?>
<!DOCTYPE svg PUBLIC "-//W3C//DTD SVG 1.1//EN" "http://www.w3.org/Graphics/SVG/1.1/DTD/svg11.dtd">
<svg xmlns="http://www.w3.org/2000/svg" version="1.1" width="2729px" height="755px" style="shape-rendering:geometricPrecision; text-rendering:geometricPrecision; image-rendering:optimizeQuality; fill-rule:evenodd; clip-rule:evenodd" xmlns:xlink="http://www.w3.org/1999/xlink">
<g><path style="opacity:0.903" fill="#fefffe" d="M 1127.5,-0.5 C 1130.83,-0.5 1134.17,-0.5 1137.5,-0.5C 1139.96,0.890847 1142.63,2.05751 1145.5,3C 1145.17,3.33333 1144.83,3.66667 1144.5,4C 1148.1,5.91787 1150.27,9.41787 1151,14.5C 1163.82,52.7815 1157.65,91.1148 1132.5,129.5C 1130.32,131.85 1127.98,134.017 1125.5,136C 1125.83,136.333 1126.17,136.667 1126.5,137C 1115.58,144.449 1103.58,147.449 1090.5,146C 1075.92,139.988 1064.26,130.988 1055.5,119C 1051.45,114.281 1046.78,110.281 1041.5,107C 1033.16,106.678 1029.83,110.678 1031.5,119C 1031.83,121.833 1032.17,124.667 1032.5,127.5C 1033.92,130.411 1035.08,133.411 1036,136.5C 1036.33,136.167 1036.67,135.833 1037,135.5C 1037.16,137.676 1038,139.509 1039.5,141C 1039.17,141.333 1038.83,141.667 1038.5,142C 1041.91,147.871 1045.41,153.704 1049,159.5C 1049.33,158.833 1049.67,158.167 1050,157.5C 1053.96,165.068 1059.12,171.735 1065.5,177.5C 1074.16,181.944 1082.5,186.944 1090.5,192.5C 1096.33,194.032 1102,196.032 1107.5,198.5C 1116.37,199.613 1125.04,199.613 1133.5,198.5C 1135.21,199.878 1136.55,201.545 1137.5,203.5C 1138.5,209.799 1139.16,216.132 1139.5,222.5C 1129.35,224.648 1119.19,225.315 1109,224.5C 1101.83,225.209 1094.66,225.875 1087.5,226.5C 1086.45,253.157 1086.28,279.824 1087,306.5C 1087.33,301.5 1087.67,296.5 1088,291.5C 1089,294.5 1090,297.5 1091,300.5C 1091.76,302.809 1091.26,304.809 1089.5,306.5C 1091.1,307.791 1092.43,309.291 1093.5,311C 1093.17,312 1092.83,313 1092.5,314C 1093.69,318.714 1095.02,323.381 1096.5,328C 1095.49,329.168 1094.49,330.335 1093.5,331.5C 1094.52,332.354 1095.36,333.354 1096,334.5C 1096.5,337.146 1096.66,339.813 1096.5,342.5C 1097.98,342.238 1099.31,342.571 1100.5,343.5C 1099.62,344.548 1098.95,345.715 1098.5,347C 1100.05,348.473 1101.05,350.306 1101.5,352.5C 1101.38,353.894 1101.05,355.228 1100.5,356.5C 1103.45,359.165 1104.45,362.332 1103.5,366C 1107.22,378.647 1110.55,391.48 1113.5,404.5C 1113.25,407.349 1112.59,410.016 1111.5,412.5C 1110.41,412.38 1109.75,411.713 1109.5,410.5C 1112.51,407.865 1112.17,405.865 1108.5,404.5C 1107.83,405.167 1107.17,405.833 1106.5,406.5C 1104.42,405.012 1103.42,403.012 1103.5,400.5C 1106.06,400.868 1108.06,400.034 1109.5,398C 1107.44,394.628 1105.77,394.795 1104.5,398.5C 1103.91,398.291 1103.41,397.957 1103,397.5C 1097.41,372.874 1091.74,348.207 1086,323.5C 1085.67,318.833 1085.33,314.167 1085,309.5C 1084.67,343.167 1084.33,376.833 1084,410.5C 1083.67,407.167 1083.33,403.833 1083,400.5C 1082.5,423.747 1081.5,446.414 1080,468.5C 1079.67,468.167 1079.33,467.833 1079,467.5C 1077.5,494.013 1075.17,520.347 1072,546.5C 1068.14,563.25 1066.47,580.25 1067,597.5C 1066.67,597.167 1066.33,596.833 1066,596.5C 1066.19,601.774 1064.69,606.441 1061.5,610.5C 1061.85,611.696 1062.35,611.696 1063,610.5C 1063.17,611.167 1063.33,611.833 1063.5,612.5C 1061.98,621.321 1059.98,629.987 1057.5,638.5C 1057.67,639.5 1057.83,640.5 1058,641.5C 1059.07,639.453 1060.24,637.453 1061.5,635.5C 1062.93,638.84 1062.27,641.673 1059.5,644C 1060.42,646.041 1060.76,648.208 1060.5,650.5C 1058.88,650.64 1057.71,649.973 1057,648.5C 1055.16,650.743 1054.66,653.076 1055.5,655.5C 1051.92,673.14 1048.59,690.807 1045.5,708.5C 1041.39,720.944 1038.22,733.611 1036,746.5C 1033.1,749.267 1031.1,748.6 1030,744.5C 1027.82,731.442 1025.48,718.442 1023,705.5C 1022.67,706.167 1022.33,706.833 1022,707.5C 1017.02,704.998 1016.68,702.331 1021,699.5C 1022.34,700.902 1023.18,700.569 1023.5,698.5C 1021.8,692.381 1020.96,686.048 1021,679.5C 1020.67,680.167 1020.33,680.833 1020,681.5C 1016.72,646.01 1013.05,610.676 1009,575.5C 1007.27,546.382 1005.61,517.382 1004,488.5C 1003.67,488.833 1003.33,489.167 1003,489.5C 1002.67,470.833 1002.33,452.167 1002,433.5C 1001.67,438.833 1001.33,444.167 1001,449.5C 1000.33,438.167 1000.33,426.833 1001,415.5C 1001.33,418.167 1001.67,420.833 1002,423.5C 1002.67,410.833 1002.67,398.167 1002,385.5C 1001.67,387.5 1001.33,389.5 1001,391.5C 1000.81,340.825 1000.31,290.158 999.5,239.5C 999.835,235.493 1000.17,231.493 1000.5,227.5C 982.098,227.688 963.765,226.855 945.5,225C 944.234,224.691 943.067,224.191 942,223.5C 941.578,221.645 941.078,219.811 940.5,218C 941.887,214.292 942.721,210.459 943,206.5C 944.255,205.789 945.421,204.956 946.5,204C 964.701,199.39 981.701,193.39 997.5,186C 999.487,183.86 1000.82,181.36 1001.5,178.5C 1002.66,170.521 1002.83,162.521 1002,154.5C 1001.67,158.167 1001.33,161.833 1001,165.5C 998.967,164.984 998.967,165.65 1001,167.5C 1001.98,171.306 1001.14,174.639 998.5,177.5C 997.808,176.975 997.308,176.308 997,175.5C 995.942,165.643 996.775,155.976 999.5,146.5C 997.104,133.558 993.437,120.891 988.5,108.5C 985.962,87.3609 991.629,68.6942 1005.5,52.5C 1023.93,33.9005 1046.93,25.7338 1074.5,28C 1086.57,32.9233 1097.9,37.7566 1108.5,42.5C 1109.5,42.3333 1110.5,42.1667 1111.5,42C 1110.17,41.6667 1108.83,41.3333 1107.5,41C 1115.09,42.0328 1120.09,38.8661 1122.5,31.5C 1123.91,29.3562 1124.74,27.0229 1125,24.5C 1124.33,25.5784 1123.33,26.2451 1122,26.5C 1116.66,24.7623 1111.16,24.0956 1105.5,24.5C 1105.36,22.7376 1105.69,21.0709 1106.5,19.5C 1106.04,18.7025 1105.38,18.3691 1104.5,18.5C 1102.86,16.8763 1103.2,15.8763 1105.5,15.5C 1107.5,16.8333 1109.5,18.1667 1111.5,19.5C 1109.08,21.7136 1109.74,22.7136 1113.5,22.5C 1113.11,19.4775 1114.11,18.4775 1116.5,19.5C 1118.37,16.7709 1119.37,17.1043 1119.5,20.5C 1121.14,20.2865 1122.64,20.6198 1124,21.5C 1124.25,20.376 1124.75,19.376 1125.5,18.5C 1125.67,20.1173 1126,21.784 1126.5,23.5C 1127.17,22.8333 1127.83,22.1667 1128.5,21.5C 1128.83,19 1129.17,16.5 1129.5,14C 1129.52,8.97175 1128.85,4.13842 1127.5,-0.5 Z M 997.5,158.5 C 999.465,158.948 999.798,159.948 998.5,161.5C 997.614,160.675 997.281,159.675 997.5,158.5 Z M 1100.5,363.5 C 1102.34,363.639 1102.67,364.306 1101.5,365.5C 1100.7,365.043 1100.37,364.376 1100.5,363.5 Z M 1102.5,387.5 C 1104.73,388.322 1105.39,389.655 1104.5,391.5C 1103.29,390.423 1102.63,389.09 1102.5,387.5 Z"/></g>
<g><path style="opacity:0.004" fill="#fefffe" d="M 1160.5,-0.5 C 1161.17,-0.5 1161.83,-0.5 1162.5,-0.5C 1161.83,3.5 1161.17,3.5 1160.5,-0.5 Z"/></g>
<g><path style="opacity:0.004" fill="#fefffe" d="M 1164.5,1.5 C 1166.34,1.63945 1166.67,2.30612 1165.5,3.5C 1164.7,3.04311 1164.37,2.37644 1164.5,1.5 Z"/></g>
<g><path style="opacity:0.004" fill="#fefffe" d="M 1170.5,3.5 C 1168.66,3.36055 1168.33,2.69388 1169.5,1.5C 1170.3,1.95689 1170.63,2.62356 1170.5,3.5 Z"/></g>
<g><path style="opacity:0.004" fill="#fefffe" d="M 1045.5,7.5 C 1046.56,2.1404 1049.56,0.807069 1054.5,3.5C 1054.8,5.60395 1054.47,7.60395 1053.5,9.5C 1052.38,7.71096 1051.04,7.37763 1049.5,8.5C 1051.4,9.93504 1051.73,11.6017 1050.5,13.5C 1049.27,10.9875 1047.61,8.98749 1045.5,7.5 Z"/></g>
<g><path style="opacity:0.007" fill="#fefffe" d="M 1170.5,3.5 C 1171.68,3.28099 1172.68,3.61432 1173.5,4.5C 1180.04,11.2237 1185.38,18.8903 1189.5,27.5C 1188.5,28.5 1187.5,29.5 1186.5,30.5C 1185.68,28.8917 1185.01,27.2251 1184.5,25.5C 1183.68,24.6143 1182.68,24.281 1181.5,24.5C 1180.93,19.2607 1178.27,16.594 1173.5,16.5C 1173.5,14.5 1173.5,12.5 1173.5,10.5C 1171.34,9.99864 1169.68,8.99864 1168.5,7.5C 1169.98,7.76202 1171.31,7.42869 1172.5,6.5C 1171.39,5.73485 1170.72,4.73485 1170.5,3.5 Z"/></g>
<g><path style="opacity:0.004" fill="#fefffe" d="M 1168.5,7.5 C 1166.66,7.36055 1166.33,6.69388 1167.5,5.5C 1168.3,5.95689 1168.63,6.62356 1168.5,7.5 Z"/></g>
<g><path style="opacity:0.006" fill="#fefffe" d="M 1045.5,7.5 C 1045.38,9.4835 1046.05,11.1502 1047.5,12.5C 1045.95,13.439 1044.61,14.6057 1043.5,16C 1044.02,16.9503 1044.69,17.7836 1045.5,18.5C 1042.27,19.7686 1039.94,21.9352 1038.5,25C 1034.68,26.3202 1032.01,28.8202 1030.5,32.5C 1026.74,32.7136 1026.08,31.7136 1028.5,29.5C 1027,28.1585 1026.33,26.4918 1026.5,24.5C 1027.5,24.5 1028.5,24.5 1029.5,24.5C 1029.34,23.1266 1029.51,21.7932 1030,20.5C 1033.01,17.823 1035.68,14.823 1038,11.5C 1039.94,9.04515 1042.44,7.71182 1045.5,7.5 Z"/></g>
<g><path style="opacity:0.004" fill="#fefffe" d="M 1113.5,13.5 C 1115.34,13.6395 1115.67,14.3061 1114.5,15.5C 1113.7,15.0431 1113.37,14.3764 1113.5,13.5 Z"/></g>
<g><path style="opacity:0.004" fill="#fefffe" d="M 1101.5,18.5 C 1099.9,19.0905 1098.57,20.0905 1097.5,21.5C 1096.59,19.2344 1097.43,17.5678 1100,16.5C 1101.03,16.8361 1101.53,17.5028 1101.5,18.5 Z"/></g>
<g><path style="opacity:0.005" fill="#fefffe" d="M 1101.5,18.5 C 1102.5,18.5 1103.5,18.5 1104.5,18.5C 1104.24,20.9372 1103.58,23.2706 1102.5,25.5C 1101.31,26.4287 1099.98,26.762 1098.5,26.5C 1099.22,23.6771 1100.22,21.0104 1101.5,18.5 Z"/></g>
<g><path style="opacity:0.942" fill="#fefffe" d="M 325.5,71.5 C 326.263,72.2679 327.263,72.7679 328.5,73C 328.167,73.3333 327.833,73.6667 327.5,74C 331.299,75.4283 334.799,78.2616 338,82.5C 338.333,82.1667 338.667,81.8333 339,81.5C 339.333,82.5 339.667,83.5 340,84.5C 340.718,83.5494 341.551,83.3828 342.5,84C 348.637,88.1206 352.97,93.6206 355.5,100.5C 354.233,99.913 353.233,99.913 352.5,100.5C 361.963,111.82 369.963,124.653 376.5,139C 391.589,158.46 402.089,178.627 408,199.5C 409.265,203.321 411.265,206.655 414,209.5C 416.859,219.525 419.859,229.525 423,239.5C 423.333,239.167 423.667,238.833 424,238.5C 427.762,250.806 430.762,263.139 433,275.5C 438.952,325.32 435.952,374.32 424,422.5C 420.485,431.037 417.152,439.704 414,448.5C 407.168,460.417 399.835,472.084 392,483.5C 382.266,494.943 372.433,506.276 362.5,517.5C 356.92,523.579 350.587,528.745 343.5,533C 343.833,533.333 344.167,533.667 344.5,534C 343.167,534.333 341.833,534.667 340.5,535C 324.898,549.98 305.564,560.646 282.5,567C 282.833,567.333 283.167,567.667 283.5,568C 268.429,570.39 253.429,573.057 238.5,576C 223.107,576.402 208.107,574.402 193.5,570C 171.275,559.243 149.275,546.577 127.5,532C 124.03,528.015 120.03,523.848 115.5,519.5C 109.351,512.533 103.684,505.2 98.5,497.5C 83.3136,490.985 67.3136,490.985 50.5,497.5C 37.5887,503.42 26.9221,510.587 18.5,519C 13.5763,521.783 8.57631,524.283 3.5,526.5C 4.75799,521.763 4.42466,517.097 2.5,512.5C 19.5735,461.204 53.9068,430.37 105.5,420C 104.833,419.667 104.167,419.333 103.5,419C 110.833,418.333 118.167,418.333 125.5,419C 122.833,419.333 120.167,419.667 117.5,420C 123.833,420.333 130.167,420.667 136.5,421C 136.167,421.333 135.833,421.667 135.5,422C 139.089,422.037 142.422,422.87 145.5,424.5C 155.034,419.8 162.034,412.633 166.5,403C 165.261,397.722 165.261,392.388 166.5,387C 165.126,379.5 163.459,372 161.5,364.5C 158.481,357.527 155.647,350.527 153,343.5C 152.365,347.102 151.032,347.768 149,345.5C 148.68,342.46 148.68,339.46 149,336.5C 148.667,337.167 148.333,337.833 148,338.5C 145.48,327.074 141.147,316.408 135,306.5C 132.408,296.497 128.741,286.83 124,277.5C 120.113,259.799 118.113,241.799 118,223.5C 118.333,223.833 118.667,224.167 119,224.5C 121.187,198.947 130.52,176.28 147,156.5C 147.01,143.345 147.177,130.345 147.5,117.5C 150.833,117.5 154.167,117.5 157.5,117.5C 157.466,121.859 157.799,126.192 158.5,130.5C 158.558,133.047 157.891,135.38 156.5,137.5C 157.441,137.489 158.108,137.989 158.5,139C 157.152,140.683 156.152,142.517 155.5,144.5C 161.088,140.583 166.088,135.916 170.5,130.5C 172.368,129.087 174.368,127.92 176.5,127C 171.046,125.437 166.046,123.104 161.5,120C 161.833,119.667 162.167,119.333 162.5,119C 161.167,118.667 159.833,118.333 158.5,118C 158.833,117.667 159.167,117.333 159.5,117C 150.544,115.171 140.878,113.671 130.5,112.5C 109.717,115.245 89.7171,120.412 70.5,128C 60.8949,134.149 51.2283,141.149 41.5,149C 30.7517,164.658 23.585,181.491 20,199.5C 16.0548,200.942 12.2214,202.609 8.5,204.5C 7.83333,204.167 7.16667,203.833 6.5,203.5C 6.98672,202.554 7.32006,201.554 7.5,200.5C 6.28107,196.395 4.78107,192.395 3,188.5C 2.66667,184.833 2.33333,181.167 2,177.5C 1.76445,175.881 0.931117,174.881 -0.5,174.5C -0.5,163.833 -0.5,153.167 -0.5,142.5C 1.5673,143.593 2.23397,143.093 1.5,141C 3.0179,133.948 5.35123,127.115 8.5,120.5C 10.7,115.504 13.7,110.171 17.5,104.5C 18.8333,104.5 19.5,103.833 19.5,102.5C 20.9063,102.027 21.573,101.027 21.5,99.5C 22.8333,99.5 23.5,98.8333 23.5,97.5C 24.3382,97.1583 24.6716,96.4916 24.5,95.5C 32.4486,87.887 40.4486,80.2203 48.5,72.5C 59.4892,64.3594 70.6558,57.6927 82,52.5C 87.6093,48.5393 93.4426,44.8727 99.5,41.5C 128.657,29.7962 158.324,23.9628 188.5,24C 188.167,24.3333 187.833,24.6667 187.5,25C 200.204,25.5395 212.871,26.5395 225.5,28C 236.466,31.8508 247.799,35.0175 259.5,37.5C 283.525,47.6861 305.525,59.0194 325.5,71.5 Z M 148.5,125.5 C 151.797,125.329 152.131,125.995 149.5,127.5C 148.702,127.043 148.369,126.376 148.5,125.5 Z M 149.5,133.5 C 150.708,134.234 152.041,134.567 153.5,134.5C 152.105,138.195 150.772,137.861 149.5,133.5 Z M 242.5,138.5 C 244.153,138.66 245.486,139.326 246.5,140.5C 252.784,144.763 259.117,149.097 265.5,153.5C 276.383,158.792 287.049,164.458 297.5,170.5C 310.656,182.314 322.323,195.314 332.5,209.5C 339.63,226.426 347.796,242.76 357,258.5C 357.333,260.5 357.667,262.5 358,264.5C 358.333,263.833 358.667,263.167 359,262.5C 364.035,274.344 367.702,286.678 370,299.5C 373.171,307.664 376.505,314.998 380,321.5C 381.804,332.931 383.304,344.431 384.5,356C 382.548,372.634 380.381,388.467 378,403.5C 377.667,402.833 377.333,402.167 377,401.5C 372.743,418.001 364.743,432.668 353,445.5C 347.497,450.172 342.664,454.839 338.5,459.5C 331.719,464.224 324.385,467.891 316.5,470.5C 296.584,474.862 276.584,475.695 256.5,473C 256.833,472.667 257.167,472.333 257.5,472C 241.81,469.334 228.143,462.667 216.5,452C 207.709,442.382 198.043,432.882 187.5,423.5C 191.481,418.684 195.648,414.018 200,409.5C 200.333,409.833 200.667,410.167 201,410.5C 201.333,408.833 201.667,407.167 202,405.5C 205.367,399.961 208.534,394.294 211.5,388.5C 212.308,386.577 212.808,384.577 213,382.5C 213.333,383.167 213.667,383.833 214,384.5C 214.333,381.5 214.667,378.5 215,375.5C 215.333,376.5 215.667,377.5 216,378.5C 217.548,369.508 220.382,358.842 224.5,346.5C 225.329,341.533 225.829,336.533 226,331.5C 226.333,333.167 226.667,334.833 227,336.5C 227.833,316.825 227.666,297.158 226.5,277.5C 220.769,251.421 211.269,226.754 198,203.5C 194.001,193.335 190.501,183.002 187.5,172.5C 189.117,166.603 191.284,160.936 194,155.5C 194.687,157.568 194.52,159.568 193.5,161.5C 194.015,163.225 194.682,164.892 195.5,166.5C 196.829,160.568 197.829,154.568 198.5,148.5C 199.919,146.664 201.086,144.664 202,142.5C 202.333,143.167 202.667,143.833 203,144.5C 203.72,142.888 203.554,141.388 202.5,140C 205.141,139.677 207.475,138.677 209.5,137C 209.167,136.667 208.833,136.333 208.5,136C 212.167,135.333 215.833,135.333 219.5,136C 219.167,136.333 218.833,136.667 218.5,137C 220.333,137.167 222.167,137.333 224,137.5C 227.784,137.676 230.617,137.01 232.5,135.5C 235.117,136.869 238.45,137.869 242.5,138.5 Z M 150.5,139.5 C 154.777,139.9 155.277,141.233 152,143.5C 151.5,142.333 150.667,141.5 149.5,141C 150.056,140.617 150.389,140.117 150.5,139.5 Z M 155.5,144.5 C 153.577,147.603 151.41,150.603 149,153.5C 148.82,151.512 148.986,149.512 149.5,147.5C 151.716,146.956 153.716,145.956 155.5,144.5 Z"/></g>
<g><path style="opacity:0.004" fill="#fefffe" d="M 1092.5,28.5 C 1092.52,23.4982 1093.86,23.1648 1096.5,27.5C 1095.31,28.4287 1093.98,28.762 1092.5,28.5 Z"/></g>
<g><path style="opacity:0.004" fill="#fefffe" d="M 1092.5,28.5 C 1091.82,30.1765 1090.48,30.8432 1088.5,30.5C 1089.18,28.8235 1090.52,28.1568 1092.5,28.5 Z"/></g>
<g><path style="opacity:0.903" fill="#fefffe" d="M 1274.5,28.5 C 1276.17,28.7512 1277.67,29.4178 1279,30.5C 1279.82,32.7885 1280.49,35.1218 1281,37.5C 1281.94,89.5131 1283.11,141.513 1284.5,193.5C 1290.22,193.902 1295.72,193.235 1301,191.5C 1310,194.167 1319,194.167 1328,191.5C 1331.12,192.058 1333.78,193.391 1336,195.5C 1335.56,200.797 1335.56,206.13 1336,211.5C 1337.71,213.589 1338.87,215.922 1339.5,218.5C 1337.92,220.989 1336.25,223.489 1334.5,226C 1328.34,225.043 1321.34,224.543 1313.5,224.5C 1303.84,224.958 1294.17,225.292 1284.5,225.5C 1284.17,252.759 1284.84,279.926 1286.5,307C 1286.33,315.5 1286.17,324 1286,332.5C 1284,335.833 1284,339.167 1286,342.5C 1286.33,378.5 1286.67,414.5 1287,450.5C 1287.89,460.053 1291.22,468.72 1297,476.5C 1300.1,479.43 1303.6,481.764 1307.5,483.5C 1321.17,484.167 1334.83,484.833 1348.5,485.5C 1356.1,485.769 1358.43,489.436 1355.5,496.5C 1353.4,499.27 1350.73,501.27 1347.5,502.5C 1345.6,506.404 1342.93,509.737 1339.5,512.5C 1335.15,514.606 1330.81,516.773 1326.5,519C 1321.82,524.721 1316.15,529.554 1309.5,533.5C 1300.87,537.316 1292.2,540.816 1283.5,544C 1280.22,546.577 1276.88,549.077 1273.5,551.5C 1269.86,553.198 1266.2,553.864 1262.5,553.5C 1246.71,541.823 1232.38,529.323 1219.5,516C 1212.75,511.111 1205.75,506.611 1198.5,502.5C 1197.17,501.167 1195.83,499.833 1194.5,498.5C 1193.24,496.647 1193.24,494.814 1194.5,493C 1193.87,492.25 1193.37,491.416 1193,490.5C 1192.67,490.833 1192.33,491.167 1192,491.5C 1190.42,485.236 1192.92,482.736 1199.5,484C 1205.68,479.976 1211.02,475.143 1215.5,469.5C 1217.6,462.563 1219.1,455.563 1220,448.5C 1222.06,421.81 1222.89,395.143 1222.5,368.5C 1221,355.552 1220.17,342.552 1220,329.5C 1219.5,328.5 1219,327.5 1218.5,326.5C 1219.38,310.448 1219.38,294.282 1218.5,278C 1219.64,260.952 1220.64,243.952 1221.5,227C 1217.31,225.246 1213.14,225.413 1209,227.5C 1200.86,225.062 1192.69,225.062 1184.5,227.5C 1180.26,227.439 1176.26,226.439 1172.5,224.5C 1171.91,224.709 1171.41,225.043 1171,225.5C 1169.74,221.5 1168.91,217.167 1168.5,212.5C 1167.17,212.5 1165.83,212.5 1164.5,212.5C 1164.62,209.52 1165.29,206.687 1166.5,204C 1170.83,203.667 1175.17,203.333 1179.5,203C 1186.11,199.798 1193.11,197.798 1200.5,197C 1206.13,193.825 1211.8,189.658 1217.5,184.5C 1220.47,180.026 1223.64,175.693 1227,171.5C 1230.27,163.618 1234.11,155.952 1238.5,148.5C 1241.22,136.698 1243.38,125.032 1245,113.5C 1245.33,113.833 1245.67,114.167 1246,114.5C 1246.33,110.167 1246.67,105.833 1247,101.5C 1247.33,101.833 1247.67,102.167 1248,102.5C 1248.17,85.8233 1248.67,69.1567 1249.5,52.5C 1251.96,48.5397 1254.96,45.0397 1258.5,42C 1258.17,41.6667 1257.83,41.3333 1257.5,41C 1259.5,39.3333 1261.5,37.6667 1263.5,36C 1263.17,35.6667 1262.83,35.3333 1262.5,35C 1264.56,34.6892 1266.56,34.1892 1268.5,33.5C 1269.96,31.0275 1271.96,29.3609 1274.5,28.5 Z"/></g>
<g><path style="opacity:0.004" fill="#fefffe" d="M 1088.5,30.5 C 1087.83,31.1667 1087.83,31.1667 1088.5,30.5 Z"/></g>
<g><path style="opacity:0.004" fill="#fefffe" d="M 1122.5,31.5 C 1121.83,30.1667 1121.83,30.1667 1122.5,31.5 Z"/></g>
<g><path style="opacity:0.004" fill="#fefffe" d="M 1030.5,32.5 C 1031.83,33.1667 1031.83,33.1667 1030.5,32.5 Z"/></g>
<g><path style="opacity:0.004" fill="#fefffe" d="M 1183.5,32.5 C 1185.34,32.6395 1185.67,33.3061 1184.5,34.5C 1183.7,34.0431 1183.37,33.3764 1183.5,32.5 Z"/></g>
<g><path style="opacity:0.005" fill="#fefffe" d="M 833.5,35.5 C 831.972,35.4827 831.472,34.816 832,33.5C 832.717,34.0442 833.217,34.7109 833.5,35.5 Z"/></g>
<g><path style="opacity:0.883" fill="#fefffe" d="M 833.5,35.5 C 836.177,33.568 839.177,33.068 842.5,34C 848.961,39.3978 855.794,45.2311 863,51.5C 867.288,60.121 873.621,66.7877 882,71.5C 884.106,73.8152 884.772,76.4819 884,79.5C 883.667,79.1667 883.333,78.8333 883,78.5C 876.486,81.6751 870.819,86.0085 866,91.5C 856.945,104.855 848.112,118.855 839.5,133.5C 837.464,135.345 835.13,135.845 832.5,135C 827.16,129.346 821.16,123.679 814.5,118C 808.614,109.834 802.947,101.001 797.5,91.5C 795.774,88.7727 793.441,86.7727 790.5,85.5C 789.16,84.3122 788.493,82.8122 788.5,81C 789.011,77.3154 790.344,73.9821 792.5,71C 804.468,57.1979 818.135,45.3645 833.5,35.5 Z"/></g>
<g><path style="opacity:0.004" fill="#fefffe" d="M 1160.5,43.5 C 1162.34,43.6395 1162.67,44.3061 1161.5,45.5C 1160.7,45.0431 1160.37,44.3764 1160.5,43.5 Z"/></g>
<g><path style="opacity:0.004" fill="#fefffe" d="M 1157.5,45.5 C 1158.53,45.8966 1158.69,46.5632 1158,47.5C 1157.54,46.9056 1157.37,46.2389 1157.5,45.5 Z"/></g>
<g><path style="opacity:0.004" fill="#fefffe" d="M 1159.5,52.5 C 1161.61,52.679 1163.27,53.679 1164.5,55.5C 1161.17,57.2518 1159.5,56.2518 1159.5,52.5 Z"/></g>
<g><path style="opacity:0.004" fill="#fefffe" d="M 1157.5,62.5 C 1158.53,62.8966 1158.69,63.5632 1158,64.5C 1157.54,63.9056 1157.37,63.2389 1157.5,62.5 Z"/></g>
<g><path style="opacity:0.004" fill="#fefffe" d="M 325.5,70.5 C 326.833,71.1667 326.833,71.1667 325.5,70.5 Z"/></g>
<g><path style="opacity:0.004" fill="#fefffe" d="M 1246.5,83.5 C 1247.64,86.3035 1247.8,89.3035 1247,92.5C 1246.5,89.5184 1246.34,86.5184 1246.5,83.5 Z"/></g>
<g><path style="opacity:0.01" fill="#fefffe" d="M 24.5,95.5 C 23.6618,95.8417 23.3284,96.5084 23.5,97.5C 22.1667,97.5 21.5,98.1667 21.5,99.5C 19.9519,99.8212 19.2852,100.821 19.5,102.5C 18.1667,102.5 17.5,103.167 17.5,104.5C 14.7534,105.806 13.0867,104.806 12.5,101.5C 13,100.5 13.5,99.5 14,98.5C 17.5749,95.9591 21.0749,93.2924 24.5,90.5C 25.6664,92.1673 25.6664,93.834 24.5,95.5 Z"/></g>
<g><path style="opacity:0.004" fill="#fefffe" d="M 1246.5,96.5 C 1247.53,96.8966 1247.69,97.5632 1247,98.5C 1246.54,97.9056 1246.37,97.2389 1246.5,96.5 Z"/></g>
<g><path style="opacity:0.004" fill="#fefffe" d="M 355.5,100.5 C 356.833,101.167 356.833,101.167 355.5,100.5 Z"/></g>
<g><path style="opacity:0.004" fill="#fefffe" d="M 359.5,104.5 C 360.573,105.251 360.74,106.251 360,107.5C 359.517,106.552 359.351,105.552 359.5,104.5 Z"/></g>
<g><path style="opacity:0.004" fill="#fefffe" d="M 362.5,107.5 C 364.344,108.204 364.844,109.537 364,111.5C 363.209,110.255 362.709,108.922 362.5,107.5 Z"/></g>
<g><path style="opacity:0.004" fill="#fefffe" d="M 8.5,120.5 C 7.83333,119.167 7.83333,119.167 8.5,120.5 Z"/></g>
<g><path style="opacity:0.004" fill="#fefffe" d="M 371.5,119.5 C 372.675,119.281 373.675,119.614 374.5,120.5C 372.948,121.798 371.948,121.465 371.5,119.5 Z"/></g>
<g><path style="opacity:0.004" fill="#fefffe" d="M 389.5,130.5 C 387.663,130.361 387.33,129.694 388.5,128.5C 389.298,128.957 389.631,129.624 389.5,130.5 Z"/></g>
<g><path style="opacity:0.005" fill="#fefffe" d="M 389.5,130.5 C 393.965,131.734 396.299,134.734 396.5,139.5C 395.167,139.5 393.833,139.5 392.5,139.5C 391.787,136.406 390.787,133.406 389.5,130.5 Z"/></g>
<g><path style="opacity:0.004" fill="#fefffe" d="M 231.5,137.5 C 235.099,138.344 238.766,138.677 242.5,138.5C 241.047,139.825 241.381,140.658 243.5,141C 239.779,141.207 236.112,140.707 232.5,139.5C 232.137,138.817 231.804,138.15 231.5,137.5 Z"/></g>
<g><path style="opacity:0.004" fill="#fefffe" d="M 396.5,139.5 C 397.586,139.62 398.253,140.287 398.5,141.5C 398.167,142.167 397.833,142.833 397.5,143.5C 396.571,142.311 396.238,140.978 396.5,139.5 Z"/></g>
<g><path style="opacity:0.004" fill="#fefffe" d="M 400.5,149.5 C 402.337,149.639 402.67,150.306 401.5,151.5C 400.702,151.043 400.369,150.376 400.5,149.5 Z"/></g>
<g><path style="opacity:0.004" fill="#fefffe" d="M 404.5,156.5 C 405.586,156.62 406.253,157.287 406.5,158.5C 406.167,159.167 405.833,159.833 405.5,160.5C 404.571,159.311 404.238,157.978 404.5,156.5 Z"/></g>
<g><path style="opacity:0.011" fill="#fefffe" d="M 404.5,168.5 C 404.498,166.169 405.331,164.169 407,162.5C 408,163.167 409,163.833 410,164.5C 414.74,175.427 418.573,186.76 421.5,198.5C 421.167,199.167 420.833,199.833 420.5,200.5C 419.472,198.639 417.972,197.305 416,196.5C 416.42,193.894 416.086,191.228 415,188.5C 413.795,187.929 412.628,187.262 411.5,186.5C 412.167,185.833 412.833,185.167 413.5,184.5C 411.89,182.403 410.723,180.07 410,177.5C 408.043,176.111 406.21,174.611 404.5,173C 405.167,172 405.833,171 406.5,170C 406.164,168.97 405.497,168.47 404.5,168.5 Z"/></g>
<g><path style="opacity:0.004" fill="#fefffe" d="M 404.5,168.5 C 404.361,170.337 403.694,170.67 402.5,169.5C 402.957,168.702 403.624,168.369 404.5,168.5 Z"/></g>
<g><path style="opacity:0.931" fill="#fefffe" d="M 830.5,186.5 C 833.119,186.232 835.619,186.565 838,187.5C 839.061,192.075 841.561,195.742 845.5,198.5C 851.738,206.745 857.238,214.745 862,222.5C 869.922,229.755 877.422,237.255 884.5,245C 884.167,245.333 883.833,245.667 883.5,246C 890.679,249.473 898.012,252.64 905.5,255.5C 906.281,256.729 906.781,258.062 907,259.5C 907.333,258.5 907.667,257.5 908,256.5C 908.667,260.5 908.667,264.5 908,268.5C 903.714,272.241 899.714,276.241 896,280.5C 889.456,290.055 883.289,299.889 877.5,310C 877.502,332.284 878.168,354.784 879.5,377.5C 878.09,387.431 877.423,397.431 877.5,407.5C 877.887,428.82 878.053,450.153 878,471.5C 880,475.506 882,479.506 884,483.5C 887.633,485.963 891.133,488.629 894.5,491.5C 899.281,492.074 903.948,493.074 908.5,494.5C 910.759,491.957 912.926,491.957 915,494.5C 924.908,491.761 934.074,488.761 942.5,485.5C 948.25,486.102 951.917,489.102 953.5,494.5C 953.27,496.626 952.27,498.293 950.5,499.5C 941.873,506.116 933.206,512.782 924.5,519.5C 900.754,532.869 876.754,545.869 852.5,558.5C 851.205,557.902 849.872,557.402 848.5,557C 848.833,556.667 849.167,556.333 849.5,556C 847.833,555.667 846.167,555.333 844.5,555C 830.072,543.803 815.738,531.636 801.5,518.5C 798.387,517.444 795.387,516.111 792.5,514.5C 787.505,509.728 782.005,505.728 776,502.5C 773.667,503.833 771.333,503.833 769,502.5C 768.45,499.737 767.617,497.07 766.5,494.5C 766.68,493.446 767.013,492.446 767.5,491.5C 772.19,488.262 776.523,484.595 780.5,480.5C 787.494,477.83 792.494,474.33 795.5,470C 798.553,468.478 801.22,466.478 803.5,464C 802.859,459.548 802.192,455.048 801.5,450.5C 801.024,419.188 800.024,388.021 798.5,357C 800.182,333.096 798.015,309.596 792,286.5C 788.377,279.622 783.543,273.622 777.5,268.5C 774.216,267.343 770.882,267.176 767.5,268C 761.779,269.035 756.279,270.868 751,273.5C 748.371,272 744.871,271 740.5,270.5C 739.33,266.571 739.997,262.905 742.5,259.5C 745.833,255.5 749.167,251.5 752.5,247.5C 756.692,245.319 760.192,242.319 763,238.5C 763.333,238.833 763.667,239.167 764,239.5C 768.192,233.607 773.359,228.773 779.5,225C 786.916,218.407 794.25,211.573 801.5,204.5C 807.35,201.982 812.683,198.816 817.5,195C 817.167,194.667 816.833,194.333 816.5,194C 819.421,191.255 822.754,189.088 826.5,187.5C 828.031,188.421 829.365,188.088 830.5,186.5 Z"/></g>
<g><path style="opacity:0.933" fill="#fefffe" d="M 2312.5,188.5 C 2316.14,187.68 2318.48,189.013 2319.5,192.5C 2321.08,193.298 2322.74,193.798 2324.5,194C 2325.83,195.667 2325.83,197.333 2324.5,199C 2329.52,201.529 2333.86,205.029 2337.5,209.5C 2341.78,211.572 2346.45,214.239 2351.5,217.5C 2358.83,223.554 2365.83,229.221 2372.5,234.5C 2379.58,236.875 2386.25,240.042 2392.5,244C 2402.86,246.7 2413.86,251.367 2425.5,258C 2431.74,259.633 2437.07,261.799 2441.5,264.5C 2442.83,266.833 2442.83,269.167 2441.5,271.5C 2429.75,276.915 2421.42,285.582 2416.5,297.5C 2416.17,300 2415.83,302.5 2415.5,305C 2415.38,308.027 2415.88,310.861 2417,313.5C 2417.33,334.5 2417.67,355.5 2418,376.5C 2420,382.167 2420,387.833 2418,393.5C 2417.11,419.407 2417.95,445.073 2420.5,470.5C 2420.04,473.221 2419.04,474.887 2417.5,475.5C 2418.56,481.392 2421.9,485.225 2427.5,487C 2427.17,487.333 2426.83,487.667 2426.5,488C 2434.57,489.448 2442.57,492.781 2450.5,498C 2456.71,498.171 2458.87,501.338 2457,507.5C 2455.93,506.72 2454.76,506.887 2453.5,508C 2439.72,519.087 2424.39,528.92 2407.5,537.5C 2397.63,546.111 2386.47,553.778 2374,560.5C 2369.1,558.102 2364.6,555.102 2360.5,551.5C 2353.5,544.833 2346.5,538.167 2339.5,531.5C 2336.55,525.552 2332.22,520.885 2326.5,517.5C 2305.6,529.249 2285.26,540.749 2265.5,552C 2261.83,554.667 2258.17,557.333 2254.5,560C 2249.4,559.961 2245.07,557.961 2241.5,554C 2235.55,551.265 2230.22,548.765 2225.5,546.5C 2217.1,538.757 2208.77,530.757 2200.5,522.5C 2192.03,510.515 2185.53,497.515 2181,483.5C 2174.58,459.658 2170.75,435.491 2169.5,411C 2170.74,378.853 2175.07,347.02 2182.5,315.5C 2186.15,305.575 2190.15,295.908 2194.5,286.5C 2197.25,285.268 2199.92,283.768 2202.5,282C 2211.47,272.298 2221.47,263.798 2232.5,256.5C 2249.64,241.811 2266.31,227.311 2282.5,213C 2294.35,205.188 2304.35,197.022 2312.5,188.5 Z M 2284.5,269.5 C 2293.54,277.053 2302.21,284.22 2310.5,291C 2316.55,295.865 2322.55,301.698 2328.5,308.5C 2328.19,309.308 2327.69,309.975 2327,310.5C 2326.83,315.5 2326.67,320.5 2326.5,325.5C 2326.35,331.002 2326.85,336.336 2328,341.5C 2328.83,384.837 2328.67,428.171 2327.5,471.5C 2317.18,482.289 2305.85,490.622 2293.5,496.5C 2281.05,483.819 2268.05,471.819 2254.5,460.5C 2253.25,458.999 2252.25,457.332 2251.5,455.5C 2253.28,453.155 2254.28,450.488 2254.5,447.5C 2253.14,438.523 2251.98,429.523 2251,420.5C 2249.99,376.143 2248.99,336.476 2248,301.5C 2259.79,290.193 2271.96,279.527 2284.5,269.5 Z"/></g>
<g><path style="opacity:0.919" fill="#fefffe" d="M 670.5,207.5 C 671.693,205.7 672.86,204.033 674,202.5C 674.333,202.833 674.667,203.167 675,203.5C 675.309,202.234 675.809,201.067 676.5,200C 679.089,198.686 681.756,198.019 684.5,198C 693.843,210.34 703.01,222.84 712,235.5C 713.444,237.155 715.278,237.822 717.5,237.5C 717.338,239.527 717.505,241.527 718,243.5C 722.56,247.945 724.893,253.278 725,259.5C 716.704,268.628 707.871,277.295 698.5,285.5C 696.816,288.612 696.15,291.946 696.5,295.5C 692.424,295.879 688.757,294.879 685.5,292.5C 679.236,285.239 672.236,278.739 664.5,273C 664.833,272.667 665.167,272.333 665.5,272C 662.49,269.469 659.823,266.636 657.5,263.5C 651.319,271.833 644.653,279.833 637.5,287.5C 627.647,300.593 623.98,315.427 626.5,332C 626.327,346.163 626.994,359.496 628.5,372C 626.588,402.142 626.088,432.309 627,462.5C 629.691,468.57 632.191,474.736 634.5,481C 634.167,481.333 633.833,481.667 633.5,482C 639.699,488.607 647.366,492.107 656.5,492.5C 661.346,490.895 666.346,490.062 671.5,490C 671.167,489.667 670.833,489.333 670.5,489C 676.472,489.084 681.972,487.584 687,484.5C 690.528,483.302 694.028,483.302 697.5,484.5C 698.414,486.664 699.581,488.664 701,490.5C 701.333,490.167 701.667,489.833 702,489.5C 702.667,491.5 702.667,493.5 702,495.5C 701.667,495.167 701.333,494.833 701,494.5C 700.5,495.667 699.667,496.5 698.5,497C 675.851,516.644 649.184,533.144 618.5,546.5C 613.092,550.453 607.259,553.453 601,555.5C 597,554.4 593.167,552.9 589.5,551C 589.833,550.667 590.167,550.333 590.5,550C 576.898,540.5 564.564,530.333 553.5,519.5C 540.782,511.48 528.115,503.48 515.5,495.5C 514.359,493.579 514.192,491.579 515,489.5C 515.333,489.833 515.667,490.167 516,490.5C 523.979,482.857 532.812,476.357 542.5,471C 542.167,470.667 541.833,470.333 541.5,470C 545.2,467.007 548.867,464.34 552.5,462C 550.977,457.298 549.811,452.465 549,447.5C 548.827,411.458 548.327,375.458 547.5,339.5C 547.709,338.914 548.043,338.414 548.5,338C 547.683,330.246 547.183,322.412 547,314.5C 544.872,304.861 542.872,295.194 541,285.5C 537.159,278.481 532.325,272.148 526.5,266.5C 524.535,265.708 522.535,265.041 520.5,264.5C 521.016,265.758 520.35,266.758 518.5,267.5C 517.833,267.167 517.167,266.833 516.5,266.5C 507.78,269.029 498.78,270.029 489.5,269.5C 489.421,265.05 490.088,260.717 491.5,256.5C 496.595,249.734 502.595,244.068 509.5,239.5C 512.707,236.293 516.373,232.627 520.5,228.5C 521.729,227.719 523.062,227.219 524.5,227C 524.167,226.667 523.833,226.333 523.5,226C 532.806,218.936 541.473,211.103 549.5,202.5C 552.683,199.82 556.016,197.32 559.5,195C 558.044,194.577 557.544,193.744 558,192.5C 560.276,193.645 562.443,193.312 564.5,191.5C 567.235,193.125 570.235,193.792 573.5,193.5C 579.608,206.379 586.275,219.046 593.5,231.5C 594.308,233.423 594.808,235.423 595,237.5C 600.373,246.595 605.206,256.595 609.5,267.5C 613.038,267.785 614.871,266.118 615,262.5C 615.333,262.833 615.667,263.167 616,263.5C 620.658,256.202 626.824,249.535 634.5,243.5C 634.533,242.011 635.033,240.678 636,239.5C 637.073,240.28 638.24,240.113 639.5,239C 642.238,235.596 645.571,232.929 649.5,231C 649.167,230.667 648.833,230.333 648.5,230C 649.967,228.902 650.801,227.402 651,225.5C 651.333,225.833 651.667,226.167 652,226.5C 653.316,225.026 654.316,223.359 655,221.5C 655.333,221.833 655.667,222.167 656,222.5C 657.122,220.58 657.956,218.58 658.5,216.5C 660.433,216.271 662.1,215.438 663.5,214C 663.167,213.667 662.833,213.333 662.5,213C 663.833,212.667 665.167,212.333 666.5,212C 666.167,211.667 665.833,211.333 665.5,211C 667.033,209.86 668.7,208.693 670.5,207.5 Z"/></g>
<g><path style="opacity:0.935" fill="#fefffe" d="M 1600.5,193.5 C 1604.51,193.334 1608.51,193.501 1612.5,194C 1612.17,194.333 1611.83,194.667 1611.5,195C 1613.17,195.333 1614.83,195.667 1616.5,196C 1616.17,196.333 1615.83,196.667 1615.5,197C 1626.05,202.617 1636.39,208.784 1646.5,215.5C 1649.66,219.492 1653.33,222.992 1657.5,226C 1657.17,226.333 1656.83,226.667 1656.5,227C 1659.28,229.385 1661.94,231.885 1664.5,234.5C 1666.43,238.425 1668.76,242.092 1671.5,245.5C 1672.21,252.598 1673.21,258.265 1674.5,262.5C 1674.62,265.691 1674.12,268.691 1673,271.5C 1672.83,301.209 1672.33,330.875 1671.5,360.5C 1672.77,364.259 1672.44,367.926 1670.5,371.5C 1671.02,374.04 1671.69,376.54 1672.5,379C 1671.6,381.079 1670.93,383.246 1670.5,385.5C 1672.07,386.825 1672.74,389.158 1672.5,392.5C 1672.65,395.272 1671.98,397.772 1670.5,400C 1670.63,401.059 1671.13,401.892 1672,402.5C 1672.33,416.833 1672.67,431.167 1673,445.5C 1673.33,445.167 1673.67,444.833 1674,444.5C 1674.33,451.167 1674.67,457.833 1675,464.5C 1678.56,467.774 1681.73,470.607 1684.5,473C 1687.93,474.927 1690.93,477.427 1693.5,480.5C 1700.28,483.149 1707.28,483.982 1714.5,483C 1720.37,479.818 1725.37,476.318 1729.5,472.5C 1730.02,470.1 1731.18,468.1 1733,466.5C 1733.33,466.833 1733.67,467.167 1734,467.5C 1736.56,462.375 1738.56,457.042 1740,451.5C 1741.71,409.505 1743.21,367.505 1744.5,325.5C 1744.17,319.5 1743.83,313.5 1743.5,307.5C 1736.47,297.634 1729.63,287.634 1723,277.5C 1717.93,272.229 1713.93,266.229 1711,259.5C 1706.07,253.228 1700.73,247.228 1695,241.5C 1693.87,239.655 1693.37,237.655 1693.5,235.5C 1688.79,235.532 1687.29,233.199 1689,228.5C 1692.4,224.071 1696.9,221.905 1702.5,222C 1715.66,216.298 1728.32,209.631 1740.5,202C 1744.03,201.112 1747.53,200.278 1751,199.5C 1752.5,199.833 1754,200.167 1755.5,200.5C 1764.21,208.879 1772.55,217.546 1780.5,226.5C 1786.52,230.717 1791.69,236.384 1796,243.5C 1796.33,243.167 1796.67,242.833 1797,242.5C 1797.71,246.325 1798.87,249.992 1800.5,253.5C 1803.4,259.62 1807.06,265.287 1811.5,270.5C 1811.95,274.283 1812.95,277.783 1814.5,281C 1814.17,281.333 1813.83,281.667 1813.5,282C 1814.62,282.249 1815.62,282.749 1816.5,283.5C 1817.32,285.783 1817.99,288.116 1818.5,290.5C 1817.79,310.319 1817.12,330.153 1816.5,350C 1817.61,374.156 1817.78,398.323 1817,422.5C 1815.32,425.028 1813.99,427.694 1813,430.5C 1810.81,439.25 1808.31,447.916 1805.5,456.5C 1801.39,461.439 1797.89,466.773 1795,472.5C 1794.67,472.167 1794.33,471.833 1794,471.5C 1791.18,474.458 1788.34,477.458 1785.5,480.5C 1770.52,490.349 1756.85,501.849 1744.5,515C 1742.64,515.684 1740.97,516.684 1739.5,518C 1732.66,524.978 1726.33,531.811 1720.5,538.5C 1719.21,539.098 1717.87,539.598 1716.5,540C 1704.85,552.706 1690.52,559.039 1673.5,559C 1664.67,549.334 1655.33,540.167 1645.5,531.5C 1634.56,525.099 1622.89,520.266 1610.5,517C 1610.83,516.667 1611.17,516.333 1611.5,516C 1606.17,515.667 1600.83,515.333 1595.5,515C 1595.83,514.667 1596.17,514.333 1596.5,514C 1590.71,513.737 1585.04,512.904 1579.5,511.5C 1580.29,516.304 1578.29,519.137 1573.5,520C 1570.34,523.322 1567.01,526.488 1563.5,529.5C 1549.71,537.845 1537.04,546.679 1525.5,556C 1520.99,557.894 1516.32,558.56 1511.5,558C 1503.16,552.718 1495.16,546.885 1487.5,540.5C 1482.54,538.235 1477.54,536.068 1472.5,534C 1472.83,533.667 1473.17,533.333 1473.5,533C 1471.5,532.667 1469.5,532.333 1467.5,532C 1467.83,531.667 1468.17,531.333 1468.5,531C 1461.16,529.686 1454,527.853 1447,525.5C 1445.42,527.993 1443.92,527.826 1442.5,525C 1443.62,524.751 1444.62,524.251 1445.5,523.5C 1441.13,521.066 1436.46,519.233 1431.5,518C 1423.5,517.667 1415.5,517.333 1407.5,517C 1407.83,516.667 1408.17,516.333 1408.5,516C 1407.17,515.667 1405.83,515.333 1404.5,515C 1404.83,514.667 1405.17,514.333 1405.5,514C 1402.66,512.37 1401.33,509.87 1401.5,506.5C 1401.89,503.367 1402.73,500.367 1404,497.5C 1404.33,497.833 1404.67,498.167 1405,498.5C 1407.33,495.833 1409.67,493.167 1412,490.5C 1417.89,482.943 1423.39,475.11 1428.5,467C 1428,466.5 1427.5,466 1427,465.5C 1426.67,451.167 1426.33,436.833 1426,422.5C 1424.98,421.4 1424.48,420.067 1424.5,418.5C 1427.1,411.319 1427.1,404.152 1424.5,397C 1424.63,395.941 1425.13,395.108 1426,394.5C 1426.17,387 1426.33,379.5 1426.5,372C 1425.23,354.253 1424.4,336.419 1424,318.5C 1421.28,307.723 1416.44,298.056 1409.5,289.5C 1404.96,287.756 1401.3,284.923 1398.5,281C 1396.16,279.659 1393.66,278.826 1391,278.5C 1384.55,278.333 1378.05,278.666 1371.5,279.5C 1371.22,274.63 1373.22,271.13 1377.5,269C 1377.17,268.667 1376.83,268.333 1376.5,268C 1379.17,266.333 1381.83,264.667 1384.5,263C 1384.17,262.667 1383.83,262.333 1383.5,262C 1385.78,261.527 1387.78,260.527 1389.5,259C 1388.83,258.667 1388.17,258.333 1387.5,258C 1391.97,256.931 1395.64,254.597 1398.5,251C 1399.5,250.667 1400.5,250.333 1401.5,250C 1401.17,249.667 1400.83,249.333 1400.5,249C 1402.5,248 1404.5,247 1406.5,246C 1405.83,245.667 1405.17,245.333 1404.5,245C 1411.68,242.69 1418.35,239.19 1424.5,234.5C 1429.06,229.547 1434.06,225.047 1439.5,221C 1440.74,219.125 1442.08,217.291 1443.5,215.5C 1444.73,214.719 1446.06,214.219 1447.5,214C 1447.17,213.667 1446.83,213.333 1446.5,213C 1451.72,207.404 1457.05,201.904 1462.5,196.5C 1465.17,195.167 1467.83,195.167 1470.5,196.5C 1476.15,201.039 1481.65,205.706 1487,210.5C 1491.74,220.103 1497.4,229.103 1504,237.5C 1506.22,241.271 1507.89,245.271 1509,249.5C 1509.55,268.454 1510.38,287.454 1511.5,306.5C 1511.68,314.753 1511.02,322.92 1509.5,331C 1509.48,333.422 1510.15,335.588 1511.5,337.5C 1511.28,338.938 1510.78,340.271 1510,341.5C 1508.73,360.354 1508.56,379.187 1509.5,398C 1507.5,402.902 1507.33,407.735 1509,412.5C 1509.94,425.925 1509.44,439.258 1507.5,452.5C 1510.96,453.373 1514.3,455.706 1517.5,459.5C 1521.17,461.338 1524.51,463.671 1527.5,466.5C 1530.05,467.925 1532.72,469.091 1535.5,470C 1535.17,470.333 1534.83,470.667 1534.5,471C 1540.23,473.209 1545.9,475.375 1551.5,477.5C 1567.43,471.747 1578.6,460.413 1585,443.5C 1585.45,409.778 1585.95,376.112 1586.5,342.5C 1584.95,327.344 1583.29,312.177 1581.5,297C 1577.11,279.864 1567.78,266.197 1553.5,256C 1553.83,255.667 1554.17,255.333 1554.5,255C 1542.86,253.24 1540.86,248.074 1548.5,239.5C 1557,234.084 1565.33,228.417 1573.5,222.5C 1582.94,212.101 1591.94,202.434 1600.5,193.5 Z"/></g>
<g><path style="opacity:0.927" fill="#fefffe" d="M 1920.5,260.5 C 1921.69,258.7 1922.86,257.033 1924,255.5C 1924.33,255.833 1924.67,256.167 1925,256.5C 1925.33,255.5 1925.67,254.5 1926,253.5C 1926.33,253.833 1926.67,254.167 1927,254.5C 1930.19,251.808 1933.02,249.641 1935.5,248C 1935.17,247.667 1934.83,247.333 1934.5,247C 1944.46,242.181 1954.79,236.848 1965.5,231C 1973.34,224.139 1982.34,217.806 1992.5,212C 1992.17,211.667 1991.83,211.333 1991.5,211C 2002.58,206.254 2013.58,201.421 2024.5,196.5C 2028.5,195.167 2032.5,195.167 2036.5,196.5C 2044.82,208.351 2051.82,220.518 2057.5,233C 2066.04,244.912 2072.87,257.746 2078,271.5C 2088.09,287.46 2099.09,302.793 2111,317.5C 2111.17,318.833 2111.33,320.167 2111.5,321.5C 2109.1,326.005 2106.76,330.671 2104.5,335.5C 2096.25,338.488 2088.92,341.988 2082.5,346C 2071.68,355.229 2060.35,362.562 2048.5,368C 2031.5,379.001 2014,389.167 1996,398.5C 1994.27,399.649 1992.6,399.649 1991,398.5C 1988.4,402.603 1985.24,406.269 1981.5,409.5C 1979.56,414.413 1979.23,419.413 1980.5,424.5C 1984.8,432.348 1987.63,440.015 1989,447.5C 1993.37,455.439 1998.21,463.105 2003.5,470.5C 2013.24,481.457 2025.41,488.124 2040,490.5C 2048.74,488.797 2056.24,485.797 2062.5,481.5C 2063.25,480.624 2063.75,479.624 2064,478.5C 2064.33,478.833 2064.67,479.167 2065,479.5C 2069.14,475.847 2073.31,472.181 2077.5,468.5C 2084.33,465.017 2090.67,460.684 2096.5,455.5C 2103.3,454.088 2109.97,454.421 2116.5,456.5C 2116.26,459.865 2116.92,463.032 2118.5,466C 2118.01,467.982 2117.01,469.649 2115.5,471C 2104,479.913 2092.34,488.58 2080.5,497C 2066.44,507.328 2052.44,518.661 2038.5,531C 2029.49,538.591 2019.82,546.258 2009.5,554C 2003.36,553.968 1997.36,552.968 1991.5,551C 1991.83,550.667 1992.17,550.333 1992.5,550C 1988.22,547.713 1984.22,545.046 1980.5,542C 1975.57,539.912 1970.57,538.245 1965.5,537C 1954.42,529.418 1944.75,520.251 1936.5,509.5C 1926.67,496.177 1916.67,483.01 1906.5,470C 1907.3,468.251 1906.63,466.918 1904.5,466C 1904.83,465.667 1905.17,465.333 1905.5,465C 1902.32,459.813 1899.82,454.313 1898,448.5C 1896.55,440.516 1895.21,432.516 1894,424.5C 1893.84,412.45 1893.01,400.45 1891.5,388.5C 1893.18,366.209 1894.01,343.876 1894,321.5C 1894.69,320.975 1895.19,320.308 1895.5,319.5C 1894.46,318.377 1893.79,317.044 1893.5,315.5C 1894.06,313.091 1894.9,310.758 1896,308.5C 1901.75,297.029 1907.75,286.363 1914,276.5C 1914.08,270.273 1916.25,264.94 1920.5,260.5 Z M 1987.5,262.5 C 1988.5,262.414 1989.33,262.748 1990,263.5C 1992.1,270.486 1995.77,276.486 2001,281.5C 2003.51,285.19 2005.51,289.19 2007,293.5C 2016.04,305.7 2024.87,318.033 2033.5,330.5C 2022.31,338.347 2009.98,345.347 1996.5,351.5C 1991.63,356.372 1985.96,360.038 1979.5,362.5C 1977.24,356.712 1975.74,350.712 1975,344.5C 1971.93,322.522 1973.27,300.855 1979,279.5C 1981.28,273.61 1984.11,267.944 1987.5,262.5 Z"/></g>
<g><path style="opacity:0.914" fill="#fefffe" d="M 2728.5,256.5 C 2728.5,260.167 2728.5,263.833 2728.5,267.5C 2727.5,267.5 2726.5,267.5 2725.5,267.5C 2725.76,268.978 2725.43,270.311 2724.5,271.5C 2714.89,282.602 2704.39,291.935 2693,299.5C 2688.6,297.449 2684.44,294.949 2680.5,292C 2680.83,291.667 2681.17,291.333 2681.5,291C 2679.47,290.368 2677.8,289.201 2676.5,287.5C 2674.26,283.892 2672.1,280.225 2670,276.5C 2669.67,276.833 2669.33,277.167 2669,277.5C 2667.33,275.5 2665.67,273.5 2664,271.5C 2659.99,275.228 2655.16,278.895 2649.5,282.5C 2644.41,286.916 2640.08,291.916 2636.5,297.5C 2633.18,300.162 2629.85,302.829 2626.5,305.5C 2625.08,321.704 2625.41,337.871 2627.5,354C 2627.57,357.29 2627.07,360.456 2626,363.5C 2625.33,399.5 2625.33,435.5 2626,471.5C 2629.03,479.894 2632.86,487.894 2637.5,495.5C 2639.87,498.35 2642.87,500.184 2646.5,501C 2653.47,502.33 2660.47,502.997 2667.5,503C 2679.77,500.009 2691.94,496.509 2704,492.5C 2706.05,492.691 2707.88,493.358 2709.5,494.5C 2710.09,494.291 2710.59,493.957 2711,493.5C 2712.16,495.285 2712.83,497.285 2713,499.5C 2713.33,498.833 2713.67,498.167 2714,497.5C 2714.67,499.167 2714.67,500.833 2714,502.5C 2700.16,509.975 2686.66,516.808 2673.5,523C 2662.99,529.707 2652.66,535.374 2642.5,540C 2637.03,543.102 2632.7,546.769 2629.5,551C 2622.71,553.893 2616.38,557.56 2610.5,562C 2607.67,562.326 2605,561.826 2602.5,560.5C 2602.39,556.21 2600.39,553.043 2596.5,551C 2596.83,550.667 2597.17,550.333 2597.5,550C 2589.66,546.16 2582.66,541.16 2576.5,535C 2565.49,527.112 2553.16,520.446 2539.5,515C 2535.68,511.395 2531.35,507.562 2526.5,503.5C 2523.55,502.679 2520.55,502.179 2517.5,502C 2517.83,501.667 2518.17,501.333 2518.5,501C 2517.81,499.933 2517.31,498.766 2517,497.5C 2516.67,498.167 2516.33,498.833 2516,499.5C 2515.33,497.5 2515.33,495.5 2516,493.5C 2520.92,488.014 2526.42,482.347 2532.5,476.5C 2535.37,474.422 2538.37,472.589 2541.5,471C 2541.17,470.667 2540.83,470.333 2540.5,470C 2542.92,469.085 2544.92,467.585 2546.5,465.5C 2548.99,412.858 2549.83,360.192 2549,307.5C 2548.67,307.833 2548.33,308.167 2548,308.5C 2547.61,304.781 2546.94,301.114 2546,297.5C 2543.28,288.118 2538.78,279.784 2532.5,272.5C 2526.48,270.356 2520.32,268.69 2514,267.5C 2507.62,269.123 2501.12,269.956 2494.5,270C 2495.71,271.018 2495.37,271.518 2493.5,271.5C 2489.23,269.555 2486.89,266.222 2486.5,261.5C 2485.5,260.5 2484.5,259.5 2483.5,258.5C 2486.49,253.839 2490.49,250.339 2495.5,248C 2495.17,247.667 2494.83,247.333 2494.5,247C 2503.02,242.185 2512.02,236.852 2521.5,231C 2530.72,223.783 2540.72,216.617 2551.5,209.5C 2555.97,207.766 2559.97,205.266 2563.5,202C 2566.48,201.502 2569.48,201.335 2572.5,201.5C 2572.16,206.145 2573.16,210.479 2575.5,214.5C 2587.24,232.316 2599.24,249.982 2611.5,267.5C 2628.61,251.38 2646.61,236.38 2665.5,222.5C 2670.95,216.374 2676.95,212.207 2683.5,210C 2682.4,208.869 2682.73,208.035 2684.5,207.5C 2688.4,209.399 2691.74,212.065 2694.5,215.5C 2702.42,226.091 2711.09,236.091 2720.5,245.5C 2722.59,248.682 2724.42,252.015 2726,255.5C 2726.67,256.252 2727.5,256.586 2728.5,256.5 Z"/></g>
<g><path style="opacity:0.004" fill="#fefffe" d="M 421.5,202.5 C 422.586,202.62 423.253,203.287 423.5,204.5C 423.167,205.167 422.833,205.833 422.5,206.5C 421.571,205.311 421.238,203.978 421.5,202.5 Z"/></g>
<g><path style="opacity:0.008" fill="#fefffe" d="M 670.5,207.5 C 669.833,206.167 669.833,206.167 670.5,207.5 Z"/></g>
<g><path style="opacity:0.004" fill="#fefffe" d="M 926.5,211.5 C 926.639,209.663 927.306,209.33 928.5,210.5C 928.043,211.298 927.376,211.631 926.5,211.5 Z"/></g>
<g><path style="opacity:0.004" fill="#fefffe" d="M 926.5,211.5 C 926.38,212.586 925.713,213.253 924.5,213.5C 923.833,213.167 923.167,212.833 922.5,212.5C 923.689,211.571 925.022,211.238 926.5,211.5 Z"/></g>
<g><path style="opacity:0.005" fill="#fefffe" d="M 914.5,217.5 C 915.735,217.721 916.735,218.388 917.5,219.5C 919.714,217.076 920.714,217.743 920.5,221.5C 916.626,223.698 913.292,226.698 910.5,230.5C 910.39,228.902 910.057,227.235 909.5,225.5C 910.355,224.707 911.189,225.04 912,226.5C 912.353,225.328 912.187,224.162 911.5,223C 912.741,221.269 913.741,219.436 914.5,217.5 Z"/></g>
<g><path style="opacity:0.004" fill="#fefffe" d="M 950.5,230.5 C 952.337,230.639 952.67,231.306 951.5,232.5C 950.702,232.043 950.369,231.376 950.5,230.5 Z"/></g>
<g><path style="opacity:0.004" fill="#fefffe" d="M 509.5,239.5 C 508.833,238.167 508.833,238.167 509.5,239.5 Z"/></g>
<g><path style="opacity:0.004" fill="#fefffe" d="M 895.5,238.5 C 897.337,238.639 897.67,239.306 896.5,240.5C 895.702,240.043 895.369,239.376 895.5,238.5 Z"/></g>
<g><path style="opacity:0.004" fill="#fefffe" d="M 962.5,243.5 C 963.675,243.281 964.675,243.614 965.5,244.5C 963.948,245.798 962.948,245.465 962.5,243.5 Z"/></g>
<g><path style="opacity:0.004" fill="#fefffe" d="M 895.5,245.5 C 897.337,245.639 897.67,246.306 896.5,247.5C 895.702,247.043 895.369,246.376 895.5,245.5 Z"/></g>
<g><path style="opacity:0.004" fill="#fefffe" d="M 965.5,247.5 C 967.337,247.639 967.67,248.306 966.5,249.5C 965.702,249.043 965.369,248.376 965.5,247.5 Z"/></g>
<g><path style="opacity:0.004" fill="#fefffe" d="M 967.5,251.5 C 969.337,251.639 969.67,252.306 968.5,253.5C 967.702,253.043 967.369,252.376 967.5,251.5 Z"/></g>
<g><path style="opacity:0.004" fill="#fefffe" d="M 969.5,257.5 C 970.978,257.238 972.311,257.571 973.5,258.5C 971.366,260.868 969.699,263.534 968.5,266.5C 967.273,263.305 967.607,260.305 969.5,257.5 Z"/></g>
<g><path style="opacity:0.008" fill="#fefffe" d="M 1920.5,260.5 C 1919.83,259.167 1919.83,259.167 1920.5,260.5 Z"/></g>
<g><path style="opacity:0.004" fill="#fefffe" d="M 909.5,262.5 C 910.598,263.601 910.765,264.934 910,266.5C 909.51,265.207 909.343,263.873 909.5,262.5 Z"/></g>
<g><path style="opacity:0.005" fill="#fefffe" d="M 914.5,262.5 C 915.978,262.238 917.311,262.571 918.5,263.5C 919.167,264.833 920.167,265.833 921.5,266.5C 922.248,268.332 923.248,269.999 924.5,271.5C 923.833,272.167 923.167,272.833 922.5,273.5C 926.989,274.473 927.322,275.807 923.5,277.5C 921.929,276.691 920.262,276.357 918.5,276.5C 919.168,271.124 917.835,266.457 914.5,262.5 Z"/></g>
<g><path style="opacity:0.005" fill="#fefffe" d="M 956.5,268.5 C 958.017,268.511 959.184,269.177 960,270.5C 960.814,272.902 960.647,275.235 959.5,277.5C 958.069,277.023 956.736,276.357 955.5,275.5C 956.374,273.253 956.708,270.92 956.5,268.5 Z"/></g>
<g><path style="opacity:0.004" fill="#fefffe" d="M 926.5,277.5 C 928.337,277.639 928.67,278.306 927.5,279.5C 926.702,279.043 926.369,278.376 926.5,277.5 Z"/></g>
<g><path style="opacity:0.004" fill="#fefffe" d="M 1813.5,277.5 C 1814.53,277.897 1814.69,278.563 1814,279.5C 1813.54,278.906 1813.37,278.239 1813.5,277.5 Z"/></g>
<g><path style="opacity:0.004" fill="#fefffe" d="M 945.5,285.5 C 944.833,285.5 944.167,285.5 943.5,285.5C 944.167,282.833 944.833,282.833 945.5,285.5 Z"/></g>
<g><path style="opacity:0.004" fill="#fefffe" d="M 943.5,285.5 C 943.843,287.483 943.176,288.817 941.5,289.5C 941.157,287.517 941.824,286.183 943.5,285.5 Z"/></g>
<g><path style="opacity:0.004" fill="#fefffe" d="M 945.5,285.5 C 947.337,285.639 947.67,286.306 946.5,287.5C 945.702,287.043 945.369,286.376 945.5,285.5 Z"/></g>
<g><path style="opacity:0.005" fill="#fefffe" d="M 941.5,289.5 C 943.317,291.012 944.317,293.012 944.5,295.5C 941.756,295.8 940.089,294.633 939.5,292C 939.684,290.624 940.351,289.791 941.5,289.5 Z"/></g>
<g><path style="opacity:0.004" fill="#fefffe" d="M 148.5,348.5 C 150.465,348.948 150.798,349.948 149.5,351.5C 148.614,350.675 148.281,349.675 148.5,348.5 Z"/></g>
<g><path style="opacity:0.004" fill="#fefffe" d="M 628.5,391.5 C 629.622,393.288 629.789,395.288 629,397.5C 628.505,395.527 628.338,393.527 628.5,391.5 Z"/></g>
<g><path style="opacity:0.004" fill="#fefffe" d="M 1105.5,408.5 C 1107.34,408.639 1107.67,409.306 1106.5,410.5C 1105.7,410.043 1105.37,409.376 1105.5,408.5 Z"/></g>
<g><path style="opacity:0.004" fill="#fefffe" d="M 1111.5,412.5 C 1113.34,412.639 1113.67,413.306 1112.5,414.5C 1111.7,414.043 1111.37,413.376 1111.5,412.5 Z"/></g>
<g><path style="opacity:0.004" fill="#fefffe" d="M 1111.5,417.5 C 1113.34,417.639 1113.67,418.306 1112.5,419.5C 1111.7,419.043 1111.37,418.376 1111.5,417.5 Z"/></g>
<g><path style="opacity:0.004" fill="#fefffe" d="M 1113.5,429.5 C 1115.34,429.639 1115.67,430.306 1114.5,431.5C 1113.7,431.043 1113.37,430.376 1113.5,429.5 Z"/></g>
<g><path style="opacity:0.004" fill="#fefffe" d="M 1083.5,453.5 C 1082.47,453.103 1082.31,452.437 1083,451.5C 1083.46,452.094 1083.63,452.761 1083.5,453.5 Z"/></g>
<g><path style="opacity:0.008" fill="#fefffe" d="M 1090.5,497.5 C 1091.38,497.631 1092.04,497.298 1092.5,496.5C 1091.72,494.712 1090.38,493.712 1088.5,493.5C 1087.9,490.873 1087.4,488.207 1087,485.5C 1086.35,486.696 1085.85,486.696 1085.5,485.5C 1086.88,483.837 1086.54,482.503 1084.5,481.5C 1084.83,480.833 1085.17,480.167 1085.5,479.5C 1084.42,473.916 1083.75,468.416 1083.5,463C 1084.02,462.05 1084.69,461.216 1085.5,460.5C 1083.83,458.477 1083.16,456.144 1083.5,453.5C 1087.86,450.876 1088.53,451.876 1085.5,456.5C 1086.32,457.386 1087.32,457.719 1088.5,457.5C 1088.86,461.263 1089.69,464.93 1091,468.5C 1094.18,470.906 1095.02,473.906 1093.5,477.5C 1094.11,482.66 1095.11,486.994 1096.5,490.5C 1096.1,494.011 1095.1,497.345 1093.5,500.5C 1091.11,501.523 1090.11,500.523 1090.5,497.5 Z"/></g>
<g><path style="opacity:0.004" fill="#fefffe" d="M 1120.5,472.5 C 1120.18,470.952 1119.18,470.285 1117.5,470.5C 1117.15,465.022 1119.15,463.688 1123.5,466.5C 1124.83,469.833 1124.83,473.167 1123.5,476.5C 1122.85,474.816 1121.85,473.483 1120.5,472.5 Z M 1119.5,468.5 C 1120.08,467.227 1120.74,467.227 1121.5,468.5C 1121.03,469.463 1120.36,469.463 1119.5,468.5 Z"/></g>
<g><path style="opacity:0.004" fill="#fefffe" d="M 1120.5,472.5 C 1120.36,474.337 1119.69,474.67 1118.5,473.5C 1118.96,472.702 1119.62,472.369 1120.5,472.5 Z"/></g>
<g><path style="opacity:0.004" fill="#fefffe" d="M 2420.5,480.5 C 2421.83,481.167 2421.83,481.167 2420.5,480.5 Z"/></g>
<g><path style="opacity:0.004" fill="#fefffe" d="M 1120.5,483.5 C 1121.5,483.5 1122.5,483.5 1123.5,483.5C 1123.5,484.5 1123.5,485.5 1123.5,486.5C 1122.5,486.5 1121.5,486.5 1120.5,486.5C 1120.5,485.5 1120.5,484.5 1120.5,483.5 Z"/></g>
<g><path style="opacity:0.004" fill="#fefffe" d="M 1088.5,493.5 C 1088.5,494.167 1088.5,494.833 1088.5,495.5C 1085.83,494.833 1085.83,494.167 1088.5,493.5 Z"/></g>
<g><path style="opacity:0.004" fill="#fefffe" d="M 1128.5,493.5 C 1130.34,493.639 1130.67,494.306 1129.5,495.5C 1128.7,495.043 1128.37,494.376 1128.5,493.5 Z"/></g>
<g><path style="opacity:0.004" fill="#fefffe" d="M 1088.5,495.5 C 1089.83,495.5 1090.5,496.167 1090.5,497.5C 1090.5,496.167 1089.83,495.5 1088.5,495.5 Z"/></g>
<g><path style="opacity:0.005" fill="#fefffe" d="M 51.5,498.5 C 54.7973,498.329 55.1306,498.995 52.5,500.5C 51.1667,501.833 49.8333,501.833 48.5,500.5C 49.6016,499.824 50.6016,499.158 51.5,498.5 Z"/></g>
<g><path style="opacity:0.004" fill="#fefffe" d="M 1126.5,498.5 C 1129.33,499.288 1130.33,500.955 1129.5,503.5C 1127.68,502.272 1126.68,500.606 1126.5,498.5 Z"/></g>
<g><path style="opacity:0.004" fill="#fefffe" d="M 1094.5,502.5 C 1096.34,502.639 1096.67,503.306 1095.5,504.5C 1094.7,504.043 1094.37,503.376 1094.5,502.5 Z"/></g>
<g><path style="opacity:0.004" fill="#fefffe" d="M 95.5,517.5 C 97.7567,517.962 99.7567,518.962 101.5,520.5C 98.1186,522.143 96.1186,521.143 95.5,517.5 Z"/></g>
<g><path style="opacity:0.004" fill="#fefffe" d="M 110.5,519.5 C 111.675,519.281 112.675,519.614 113.5,520.5C 111.948,521.798 110.948,521.465 110.5,519.5 Z"/></g>
<g><path style="opacity:0.004" fill="#fefffe" d="M 1090.5,521.5 C 1092.34,521.639 1092.67,522.306 1091.5,523.5C 1090.7,523.043 1090.37,522.376 1090.5,521.5 Z"/></g>
<g><path style="opacity:0.004" fill="#fefffe" d="M 1094.5,521.5 C 1096.34,521.639 1096.67,522.306 1095.5,523.5C 1094.7,523.043 1094.37,522.376 1094.5,521.5 Z"/></g>
<g><path style="opacity:0.004" fill="#fefffe" d="M 1122.5,521.5 C 1124.34,521.639 1124.67,522.306 1123.5,523.5C 1122.7,523.043 1122.37,522.376 1122.5,521.5 Z"/></g>
<g><path style="opacity:0.004" fill="#fefffe" d="M 1088.5,525.5 C 1089.98,525.238 1091.31,525.571 1092.5,526.5C 1091.83,526.833 1091.17,527.167 1090.5,527.5C 1089.29,527.253 1088.62,526.586 1088.5,525.5 Z"/></g>
<g><path style="opacity:0.004" fill="#fefffe" d="M 1088.5,529.5 C 1090.34,529.639 1090.67,530.306 1089.5,531.5C 1088.7,531.043 1088.37,530.376 1088.5,529.5 Z"/></g>
<g><path style="opacity:0.004" fill="#fefffe" d="M 1094.5,533.5 C 1094.64,531.663 1095.31,531.33 1096.5,532.5C 1096.04,533.298 1095.38,533.631 1094.5,533.5 Z"/></g>
<g><path style="opacity:0.004" fill="#fefffe" d="M 1094.5,533.5 C 1095.38,533.631 1096.04,533.298 1096.5,532.5C 1095.31,531.33 1094.64,531.663 1094.5,533.5 Z"/></g>
<g><path style="opacity:0.004" fill="#fefffe" d="M 1092.5,538.5 C 1091.62,538.369 1090.96,538.702 1090.5,539.5C 1091.08,541.55 1092.41,542.55 1094.5,542.5C 1094.71,546.257 1093.71,546.924 1091.5,544.5C 1090.07,545.588 1089.07,546.922 1088.5,548.5C 1087.41,548.38 1086.75,547.713 1086.5,546.5C 1088.12,543.358 1088.79,540.025 1088.5,536.5C 1090.48,536.157 1091.82,536.824 1092.5,538.5 Z"/></g>
<g><path style="opacity:0.004" fill="#fefffe" d="M 1094.5,538.5 C 1094.64,536.663 1095.31,536.33 1096.5,537.5C 1096.04,538.298 1095.38,538.631 1094.5,538.5 Z"/></g>
<g><path style="opacity:0.004" fill="#fefffe" d="M 1092.5,538.5 C 1093.17,538.5 1093.83,538.5 1094.5,538.5C 1093.83,541.167 1093.17,541.167 1092.5,538.5 Z"/></g>
<g><path style="opacity:0.004" fill="#fefffe" d="M 1126.5,538.5 C 1128.34,538.639 1128.67,539.306 1127.5,540.5C 1126.7,540.043 1126.37,539.376 1126.5,538.5 Z"/></g>
<g><path style="opacity:0.004" fill="#fefffe" d="M 948.5,542.5 C 950.337,542.639 950.67,543.306 949.5,544.5C 948.702,544.043 948.369,543.376 948.5,542.5 Z"/></g>
<g><path style="opacity:0.006" fill="#fefffe" d="M 981.5,550.5 C 982.289,550.217 982.956,549.717 983.5,549C 982.253,547.506 982.253,546.006 983.5,544.5C 984.386,545.325 984.719,546.325 984.5,547.5C 985.552,547.649 986.552,547.483 987.5,547C 991.545,540.659 992.879,541.159 991.5,548.5C 987.993,551.087 984.326,553.42 980.5,555.5C 980.167,555 979.833,554.5 979.5,554C 980.429,552.923 981.096,551.756 981.5,550.5 Z"/></g>
<g><path style="opacity:0.004" fill="#fefffe" d="M 1124.5,542.5 C 1126.34,542.639 1126.67,543.306 1125.5,544.5C 1124.7,544.043 1124.37,543.376 1124.5,542.5 Z"/></g>
<g><path style="opacity:0.004" fill="#fefffe" d="M 1128.5,546.5 C 1130.34,546.639 1130.67,547.306 1129.5,548.5C 1128.7,548.043 1128.37,547.376 1128.5,546.5 Z"/></g>
<g><path style="opacity:0.004" fill="#fefffe" d="M 981.5,550.5 C 979.663,550.361 979.33,549.694 980.5,548.5C 981.298,548.957 981.631,549.624 981.5,550.5 Z"/></g>
<g><path style="opacity:0.004" fill="#fefffe" d="M 1088.5,548.5 C 1089.83,548.5 1091.17,548.5 1092.5,548.5C 1092.63,550.2 1093.29,551.7 1094.5,553C 1094.17,553.5 1093.83,554 1093.5,554.5C 1090.21,553.462 1089.88,554.128 1092.5,556.5C 1091.39,557.265 1090.72,558.265 1090.5,559.5C 1087.46,558.256 1086.12,555.923 1086.5,552.5C 1087.98,552.762 1089.31,552.429 1090.5,551.5C 1089.39,550.735 1088.72,549.735 1088.5,548.5 Z"/></g>
<g><path style="opacity:0.004" fill="#fefffe" d="M 1126.5,557.5 C 1128.34,557.639 1128.67,558.306 1127.5,559.5C 1126.7,559.043 1126.37,558.376 1126.5,557.5 Z"/></g>
<g><path style="opacity:0.005" fill="#fefffe" d="M 1090.5,559.5 C 1091.38,559.369 1092.04,559.702 1092.5,560.5C 1091.14,565.933 1089.48,571.266 1087.5,576.5C 1086.55,575.674 1085.55,575.508 1084.5,576C 1086.02,577.897 1086.68,580.064 1086.5,582.5C 1084.17,582.5 1081.83,582.5 1079.5,582.5C 1079.2,580.396 1079.53,578.396 1080.5,576.5C 1082.61,574.657 1083.77,572.324 1084,569.5C 1084.25,570.624 1084.75,571.624 1085.5,572.5C 1086.32,570.713 1087.32,569.046 1088.5,567.5C 1087,567.522 1085.34,567.189 1083.5,566.5C 1085.14,565.295 1085.47,563.962 1084.5,562.5C 1085.39,561.41 1086.39,561.41 1087.5,562.5C 1089.21,562.121 1090.21,561.121 1090.5,559.5 Z"/></g>
<g><path style="opacity:0.004" fill="#fefffe" d="M 1124.5,561.5 C 1126.34,561.639 1126.67,562.306 1125.5,563.5C 1124.7,563.043 1124.37,562.376 1124.5,561.5 Z"/></g>
<g><path style="opacity:0.004" fill="#fefffe" d="M 1118.5,574.5 C 1119.68,574.281 1120.68,574.614 1121.5,575.5C 1119.95,576.798 1118.95,576.465 1118.5,574.5 Z"/></g>
<g><path style="opacity:0.004" fill="#fefffe" d="M 1083.5,584.5 C 1084.65,584.791 1085.32,585.624 1085.5,587C 1084.4,589.798 1083.4,592.631 1082.5,595.5C 1081.72,593.223 1080.72,591.057 1079.5,589C 1081.16,587.699 1082.49,586.199 1083.5,584.5 Z"/></g>
<g><path style="opacity:0.009" fill="#fefffe" d="M 1098.5,648.5 C 1096.15,649.775 1096.32,651.108 1099,652.5C 1100.03,652.164 1100.53,651.497 1100.5,650.5C 1101.76,650.096 1102.92,649.429 1104,648.5C 1104.5,648.833 1105,649.167 1105.5,649.5C 1104.14,650.893 1103.3,652.559 1103,654.5C 1100.97,654.986 1098.81,654.986 1096.5,654.5C 1095.83,651.833 1095.17,651.833 1094.5,654.5C 1093.41,654.38 1092.75,653.713 1092.5,652.5C 1094.36,647.659 1095.7,642.659 1096.5,637.5C 1094.84,635.019 1094.34,632.353 1095,629.5C 1096.21,625.404 1098.21,621.737 1101,618.5C 1102,621.028 1102.83,621.028 1103.5,618.5C 1105.56,611.363 1107.56,604.197 1109.5,597C 1110.99,595.012 1112.65,593.179 1114.5,591.5C 1115.25,593.332 1116.25,594.999 1117.5,596.5C 1116.83,597.167 1116.17,597.833 1115.5,598.5C 1116.41,599.328 1117.08,600.328 1117.5,601.5C 1114.64,604.843 1113.98,608.509 1115.5,612.5C 1113.69,612.491 1112.02,612.991 1110.5,614C 1111.35,615.881 1111.02,617.714 1109.5,619.5C 1111.12,620.869 1111.62,622.536 1111,624.5C 1110.11,623.289 1109.27,623.289 1108.5,624.5C 1109.31,626.071 1109.64,627.738 1109.5,629.5C 1106.8,629.38 1106.13,630.38 1107.5,632.5C 1104.87,635.081 1102.87,638.081 1101.5,641.5C 1102.52,643.895 1101.52,644.895 1098.5,644.5C 1098.5,645.833 1098.5,647.167 1098.5,648.5 Z M 1098.5,648.5 C 1098.5,649.833 1099.17,650.5 1100.5,650.5C 1100.53,651.497 1100.03,652.164 1099,652.5C 1096.32,651.108 1096.15,649.775 1098.5,648.5 Z M 1096.5,654.5 C 1095.83,654.5 1095.17,654.5 1094.5,654.5C 1095.17,651.833 1095.83,651.833 1096.5,654.5 Z"/></g>
<g><path style="opacity:0.006" fill="#fefffe" d="M 911.5,608.5 C 917.212,609.936 918.545,613.27 915.5,618.5C 911.853,615.901 910.519,612.568 911.5,608.5 Z"/></g>
<g><path style="opacity:0.004" fill="#fefffe" d="M 1071.5,616.5 C 1073.34,616.639 1073.67,617.306 1072.5,618.5C 1071.7,618.043 1071.37,617.376 1071.5,616.5 Z"/></g>
<g><path style="opacity:0.004" fill="#fefffe" d="M 920.5,622.5 C 917.987,620.987 918.32,619.654 921.5,618.5C 921.833,618.833 922.167,619.167 922.5,619.5C 921.388,620.265 920.721,621.265 920.5,622.5 Z"/></g>
<g><path style="opacity:0.004" fill="#fefffe" d="M 1073.5,619.5 C 1075.46,619.948 1075.8,620.948 1074.5,622.5C 1073.61,621.675 1073.28,620.675 1073.5,619.5 Z"/></g>
<g><path style="opacity:0.01" fill="#fefffe" d="M 920.5,622.5 C 923.136,624.084 925.47,623.751 927.5,621.5C 926.997,623.876 926.997,626.376 927.5,629C 932.676,633.19 936.509,638.357 939,644.5C 939.667,643.833 940.333,643.167 941,642.5C 942.638,648.426 946.471,652.093 952.5,653.5C 951.624,654.251 950.624,654.751 949.5,655C 952.787,656.313 955.787,658.146 958.5,660.5C 957.833,661.167 957.167,661.833 956.5,662.5C 958.213,663.878 959.547,665.545 960.5,667.5C 960.167,668.167 959.833,668.833 959.5,669.5C 956.159,667.494 952.825,665.494 949.5,663.5C 949.167,663.833 948.833,664.167 948.5,664.5C 950.924,666.714 950.257,667.714 946.5,667.5C 947.027,664.091 947.527,660.758 948,657.5C 937.134,649.914 928.134,640.581 921,629.5C 920.503,627.19 920.337,624.857 920.5,622.5 Z"/></g>
<g><path style="opacity:0.004" fill="#fefffe" d="M 1069.5,623.5 C 1071.34,623.639 1071.67,624.306 1070.5,625.5C 1069.7,625.043 1069.37,624.376 1069.5,623.5 Z"/></g>
<g><path style="opacity:0.004" fill="#fefffe" d="M 1069.5,627.5 C 1070.98,627.238 1072.31,627.571 1073.5,628.5C 1072.83,628.833 1072.17,629.167 1071.5,629.5C 1070.29,629.253 1069.62,628.586 1069.5,627.5 Z"/></g>
<g><path style="opacity:0.004" fill="#fefffe" d="M 1111.5,627.5 C 1113.34,627.639 1113.67,628.306 1112.5,629.5C 1111.7,629.043 1111.37,628.376 1111.5,627.5 Z"/></g>
<g><path style="opacity:0.004" fill="#fefffe" d="M 1064.5,631.5 C 1066.34,631.639 1066.67,632.306 1065.5,633.5C 1064.7,633.043 1064.37,632.376 1064.5,631.5 Z"/></g>
<g><path style="opacity:0.004" fill="#fefffe" d="M 1105.5,642.5 C 1106.59,642.62 1107.25,643.287 1107.5,644.5C 1107.17,645.167 1106.83,645.833 1106.5,646.5C 1105.57,645.311 1105.24,643.978 1105.5,642.5 Z"/></g>
<g><path style="opacity:0.004" fill="#fefffe" d="M 1098.5,648.5 C 1099.83,648.5 1100.5,649.167 1100.5,650.5C 1100.5,649.167 1099.83,648.5 1098.5,648.5 Z"/></g>
<g><path style="opacity:0.004" fill="#fefffe" d="M 1094.5,654.5 C 1095.17,654.5 1095.83,654.5 1096.5,654.5C 1096.5,655.167 1096.5,655.833 1096.5,656.5C 1095.83,656.5 1095.17,656.5 1094.5,656.5C 1094.5,655.833 1094.5,655.167 1094.5,654.5 Z"/></g>
<g><path style="opacity:0.005" fill="#fefffe" d="M 1094.5,656.5 C 1095.17,657.833 1095.83,657.833 1096.5,656.5C 1098.83,656.247 1100.83,656.914 1102.5,658.5C 1101.08,661.009 1099.41,663.343 1097.5,665.5C 1097.39,660.758 1095.06,658.092 1090.5,657.5C 1090.37,656.624 1090.7,655.957 1091.5,655.5C 1092.42,656.127 1093.42,656.461 1094.5,656.5 Z"/></g>
<g><path style="opacity:0.004" fill="#fefffe" d="M 1090.5,657.5 C 1090.5,658.167 1090.5,658.833 1090.5,659.5C 1089.83,659.5 1089.17,659.5 1088.5,659.5C 1088.5,658.167 1089.17,657.5 1090.5,657.5 Z"/></g>
<g><path style="opacity:0.008" fill="#fefffe" d="M 910.5,659.5 C 912.167,659.5 913.833,659.5 915.5,659.5C 915.5,660.833 915.5,662.167 915.5,663.5C 916.675,663.281 917.675,663.614 918.5,664.5C 917.585,665.328 916.919,666.328 916.5,667.5C 917.453,669.455 918.787,671.122 920.5,672.5C 919.167,673.833 917.833,673.833 916.5,672.5C 913.683,669.949 911.017,666.615 908.5,662.5C 909.193,661.482 909.859,660.482 910.5,659.5 Z"/></g>
<g><path style="opacity:0.004" fill="#fefffe" d="M 1088.5,659.5 C 1088.76,660.978 1088.43,662.311 1087.5,663.5C 1087.17,662.833 1086.83,662.167 1086.5,661.5C 1086.75,660.287 1087.41,659.62 1088.5,659.5 Z"/></g>
<g><path style="opacity:0.004" fill="#fefffe" d="M 1090.5,659.5 C 1092.34,659.639 1092.67,660.306 1091.5,661.5C 1090.7,661.043 1090.37,660.376 1090.5,659.5 Z"/></g>
<g><path style="opacity:0.004" fill="#fefffe" d="M 961.5,663.5 C 962.675,663.281 963.675,663.614 964.5,664.5C 962.948,665.798 961.948,665.465 961.5,663.5 Z"/></g>
<g><path style="opacity:0.004" fill="#fefffe" d="M 1092.5,663.5 C 1094.34,663.639 1094.67,664.306 1093.5,665.5C 1092.7,665.043 1092.37,664.376 1092.5,663.5 Z"/></g>
<g><path style="opacity:0.004" fill="#fefffe" d="M 971.5,669.5 C 970.167,669.5 968.833,669.5 967.5,669.5C 967.238,668.022 967.571,666.689 968.5,665.5C 969.934,666.588 970.934,667.922 971.5,669.5 Z"/></g>
<g><path style="opacity:0.004" fill="#fefffe" d="M 971.5,669.5 C 972.833,669.5 973.5,670.167 973.5,671.5C 973.5,670.167 972.833,669.5 971.5,669.5 Z"/></g>
<g><path style="opacity:0.007" fill="#fefffe" d="M 1015.5,669.5 C 1016.5,669.5 1017.5,669.5 1018.5,669.5C 1018.5,671.833 1018.5,674.167 1018.5,676.5C 1015.57,675.539 1012.57,674.873 1009.5,674.5C 1009.28,673.325 1009.61,672.325 1010.5,671.5C 1012.34,670.972 1014,670.306 1015.5,669.5 Z"/></g>
<g><path style="opacity:0.004" fill="#fefffe" d="M 1083.5,669.5 C 1085.34,669.639 1085.67,670.306 1084.5,671.5C 1083.7,671.043 1083.37,670.376 1083.5,669.5 Z"/></g>
<g><path style="opacity:0.004" fill="#fefffe" d="M 1090.5,669.5 C 1091.98,669.238 1093.31,669.571 1094.5,670.5C 1093.83,670.833 1093.17,671.167 1092.5,671.5C 1091.29,671.253 1090.62,670.586 1090.5,669.5 Z"/></g>
<g><path style="opacity:0.004" fill="#fefffe" d="M 973.5,671.5 C 977.406,671.467 980.74,672.801 983.5,675.5C 982.078,676.547 980.578,676.547 979,675.5C 976.757,674.488 974.924,673.155 973.5,671.5 Z"/></g>
<g><path style="opacity:0.004" fill="#fefffe" d="M 1005.5,671.5 C 1007.34,671.639 1007.67,672.306 1006.5,673.5C 1005.7,673.043 1005.37,672.376 1005.5,671.5 Z"/></g>
<g><path style="opacity:0.004" fill="#fefffe" d="M 926.5,676.5 C 924.663,676.361 924.33,675.694 925.5,674.5C 926.298,674.957 926.631,675.624 926.5,676.5 Z"/></g>
<g><path style="opacity:0.004" fill="#fefffe" d="M 926.5,676.5 C 929.797,677.517 932.797,678.85 935.5,680.5C 934.326,681.514 933.66,682.847 933.5,684.5C 931.879,684.213 930.879,683.213 930.5,681.5C 929.311,680.571 927.978,680.238 926.5,680.5C 926.5,679.167 926.5,677.833 926.5,676.5 Z"/></g>
<g><path style="opacity:0.004" fill="#fefffe" d="M 937.5,680.5 C 937.639,678.663 938.306,678.33 939.5,679.5C 939.043,680.298 938.376,680.631 937.5,680.5 Z"/></g>
<g><path style="opacity:0.005" fill="#fefffe" d="M 935.5,680.5 C 936.167,680.5 936.833,680.5 937.5,680.5C 938.326,682.264 939.659,683.598 941.5,684.5C 942.183,682.824 943.517,682.157 945.5,682.5C 945.249,685.498 946.249,687.998 948.5,690C 948.167,690.5 947.833,691 947.5,691.5C 946.065,689.599 944.398,689.266 942.5,690.5C 941.833,689.833 941.167,689.167 940.5,688.5C 938.273,689.053 935.939,689.053 933.5,688.5C 933.5,687.167 933.5,685.833 933.5,684.5C 935.176,683.817 935.843,682.483 935.5,680.5 Z M 941.5,684.5 C 943.337,684.639 943.67,685.306 942.5,686.5C 941.702,686.043 941.369,685.376 941.5,684.5 Z"/></g>
<g><path style="opacity:0.004" fill="#fefffe" d="M 950.5,688.5 C 951.649,688.791 952.316,689.624 952.5,691C 952.167,691.833 951.833,692.667 951.5,693.5C 950.548,691.955 950.215,690.288 950.5,688.5 Z"/></g>
<g><path style="opacity:0.004" fill="#fefffe" d="M 956.5,695.5 C 958.604,695.201 960.604,695.534 962.5,696.5C 961.5,696.833 960.5,697.167 959.5,697.5C 957.97,697.36 956.97,696.693 956.5,695.5 Z"/></g>
<g><path style="opacity:0.004" fill="#fefffe" d="M 967.5,699.5 C 968.183,697.824 969.517,697.157 971.5,697.5C 971.328,699.492 971.995,701.158 973.5,702.5C 972.311,703.429 970.978,703.762 969.5,703.5C 969.843,701.517 969.176,700.183 967.5,699.5 Z"/></g>
<g><path style="opacity:0.004" fill="#fefffe" d="M 1052.5,697.5 C 1053.38,697.369 1054.04,697.702 1054.5,698.5C 1053.82,700.547 1052.65,702.214 1051,703.5C 1050.5,703.167 1050,702.833 1049.5,702.5C 1050.55,700.799 1051.55,699.132 1052.5,697.5 Z"/></g>
<g><path style="opacity:0.004" fill="#fefffe" d="M 967.5,699.5 C 967.361,701.337 966.694,701.67 965.5,700.5C 965.957,699.702 966.624,699.369 967.5,699.5 Z"/></g>
<g><path style="opacity:0.004" fill="#fefffe" d="M 982.5,699.5 C 984.337,699.639 984.67,700.306 983.5,701.5C 982.702,701.043 982.369,700.376 982.5,699.5 Z"/></g>
<g><path style="opacity:0.004" fill="#fefffe" d="M 1047.5,699.5 C 1048.53,699.897 1048.69,700.563 1048,701.5C 1047.54,700.906 1047.37,700.239 1047.5,699.5 Z"/></g>
<g><path style="opacity:0.004" fill="#fefffe" d="M 979.5,703.5 C 978.265,703.721 977.265,704.388 976.5,705.5C 975.571,704.311 975.238,702.978 975.5,701.5C 977.483,701.157 978.817,701.824 979.5,703.5 Z"/></g>
<g><path style="opacity:0.004" fill="#fefffe" d="M 979.5,703.5 C 980.675,703.281 981.675,703.614 982.5,704.5C 980.948,705.798 979.948,705.465 979.5,703.5 Z"/></g>
<g><path style="opacity:0.004" fill="#fefffe" d="M 986.5,703.5 C 988.337,703.639 988.67,704.306 987.5,705.5C 986.702,705.043 986.369,704.376 986.5,703.5 Z"/></g>
</svg>
